<?xml version="1.0" encoding="utf-8"?>
<!-- Generator: Adobe Illustrator 12.0.1, SVG Export Plug-In . SVG Version: 6.00 Build 51448)  -->
<!DOCTYPE svg PUBLIC "-//W3C//DTD SVG 1.1//EN" "http://www.w3.org/Graphics/SVG/1.1/DTD/svg11.dtd" [
	<!ENTITY ns_svg "http://www.w3.org/2000/svg">
	<!ENTITY ns_xlink "http://www.w3.org/1999/xlink">
]>
<svg  version="1.1" id="Layer_1" xmlns="&ns_svg;" xmlns:xlink="&ns_xlink;" width="532.268" height="595.532"
	 viewBox="0 0 532.268 595.532" overflow="visible" enable-background="new 0 0 532.268 595.532" xml:space="preserve">
<g>
	<path fill-rule="evenodd" clip-rule="evenodd" fill="#FFFFFF" d="M416.683,48.167c12.696-0.03,19.416,5.917,29,9
		c5.615,5.572,11.137,13.029,12,24c1.383,17.571-5.835,32.818-13,43c-1.723,2.448-2.632,5.335-4,7
		c-22.226,27.033-61.861,35.368-97,38c25.053-10.3,55.029-25.979,72-51c6.104-9,15.781-26.229,13-45
		C427.147,62.806,420.493,58.003,416.683,48.167z"/>
	<path fill-rule="evenodd" clip-rule="evenodd" fill="#FFFFFF" d="M321.683,99.167c-19.546,9.167-42.515,10.209-61,18
		c-11.59,4.885-23.982,11.51-34,19c-9.478,7.087-17.819,19.201-23,33c-2.75,7.322-4.07,14.068-5,25
		c-37.25,5.083-82.069,2.598-102,25c-1.56,16.893,5.132,25.535,12,34c6.776,18.929,11.748,38.409,18,57
		c6.283,18.683,15.095,35.832,21,54c-24.273,1.957-58.063,5.106-82,15c-12.59,5.204-22.991,10.731-23,24
		c-33.336-93.773,3.144-189.144,54-240c19.662-19.662,41.975-35.606,69-48c1.157-0.531,3.252-1.209,5-2
		c4.163-1.882,11.442-6.003,18-8c29.332-8.929,69.023-18.434,110-12C306.22,94.35,312.688,97.909,321.683,99.167z M196.683,109.167
		c-22.019,6.889-40.098,16.055-57,27c-6.624,4.29-13.149,10.037-18,14c-1.999,1.633-5.068,2.357-7,4
		c-6.481,5.511-12.105,12.913-18,19c-6.367,6.574-14.121,12.828-16,22c41.778,2.778,73.242-4.758,109-8
		c3.684-20.649,12.757-35.909,23-50c14.798-11.552,30.972-23.984,50-31c4.734-1.746,12.27,0.039,13-8
		C244.443,96.733,219.619,101.991,196.683,109.167z M73.683,200.167c-7.042,16.292-17.772,28.895-22,48
		c15.735-0.402,30.327,0.34,45,1c-0.399-8.091-7.83-9.992-9-17c-2.313-13.85,9.463-22.677,17-30
		C93.28,202.569,85.954,198.895,73.683,200.167z M48.683,256.167c-3.54,10.794-7.075,21.591-8,35c22.74,0.259,46.754-0.754,68,1
		c-2.151-12.849-3.554-26.446-9-36C82.683,256.167,65.683,256.167,48.683,256.167z M37.683,301.167c0.639,9.973-1.729,16.938-1,27
		c27.18-1.994,59.666-1.136,87,0c-3.069-9.932-7.575-18.425-11-28C83.228,301.156,60.15,299.831,37.683,301.167z M36.683,338.167
		c0.037,10.856,3.214,14.549,3,24c32.212-0.455,67.048,1.715,95-3c-0.202-9.798-6.928-13.072-8-22
		C100.605,339.297,57.193,336.768,36.683,338.167z M43.683,380.167c6.152-1.514,15.121-0.212,17-6c-6.333,0-12.667,0-19,0
		C40.891,377.625,42.794,378.388,43.683,380.167z"/>
	<path fill-rule="evenodd" clip-rule="evenodd" d="M275.683,98.167c-0.73,8.039-8.266,6.254-13,8c-19.028,7.016-35.202,19.448-50,31
		c-10.243,14.091-19.316,29.351-23,50c-35.758,3.242-67.222,10.778-109,8c1.879-9.172,9.633-15.426,16-22
		c5.895-6.087,11.519-13.489,18-19c1.932-1.643,5.001-2.367,7-4c4.851-3.963,11.376-9.71,18-14c16.902-10.945,34.981-20.111,57-27
		C219.619,101.991,244.443,96.733,275.683,98.167z"/>
	<path fill-rule="evenodd" clip-rule="evenodd" d="M452.683,195.167c-53.594-0.586-100.696,1.05-152-1
		c15.548-7.199,35.729-5.521,56-8c19.98-2.443,38.953-6.58,55-13c5.339-2.136,10.229-5.619,16-7c4.741-1.135,11.654,8.914,15,13
		C447.239,184.731,451.026,189.423,452.683,195.167z"/>
	<path fill-rule="evenodd" clip-rule="evenodd" d="M104.683,202.167c-7.537,7.323-19.313,16.15-17,30c1.17,7.008,8.601,8.909,9,17
		c-14.673-0.66-29.265-1.402-45-1c4.228-19.105,14.958-31.708,22-48C85.954,198.895,93.28,202.569,104.683,202.167z"/>
	<path fill-rule="evenodd" clip-rule="evenodd" d="M333.683,200.167c41.333,0,82.667,0,124,0c9.24,14.426,18.048,29.286,24,47
		c-28.301,1.948-70.173,1-105,1c-11.534,0-22.811,1.112-29-7c4.212-11.969,3.053-16.514,0-28
		C344.03,207.819,335.671,207.178,333.683,200.167z"/>
	<path fill-rule="evenodd" clip-rule="evenodd" d="M111.683,220.167c1,0,2,0,3,0c5.558,12.959,23.05,18.7,38,19
		c-0.684,3.492-6.612,2.144-10,2c-4.341-0.185-10.255-1.204-14-2c-2.44-0.519-6.546-1.343-8-2c-4.327-1.955-7.787-7.878-10-13
		C110.556,222.373,111.907,222.057,111.683,220.167z"/>
	<path fill-rule="evenodd" clip-rule="evenodd" d="M119.683,238.167c41.47,18.647,113.694,14.555,165,12
		c-21.717,7.417-56.625,6.904-90,7c-11.391,0.033-24.049-2.007-37-4C141.012,250.601,122.282,251.478,119.683,238.167z"/>
	<path fill-rule="evenodd" clip-rule="evenodd" d="M484.683,255.167c2.71,11.957,7.43,21.904,8,36c-36.568-0.6-80.344,1.24-112-1
		c-0.935-14.398-6.523-24.144-13-33c-0.184-0.851,0.39-0.943,1-1c0.81-0.19,0.997-1.003,2-1
		C392.951,255.266,449.069,257.511,484.683,255.167z"/>
	<path fill-rule="evenodd" clip-rule="evenodd" d="M99.683,256.167c5.446,9.554,6.849,23.151,9,36c-21.246-1.754-45.26-0.741-68-1
		c0.925-13.409,4.46-24.206,8-35C65.683,256.167,82.683,256.167,99.683,256.167z"/>
	<path fill-rule="evenodd" clip-rule="evenodd" d="M135.683,256.167c4.646-0.979,6.037,1.296,9,2c8.552,1.329,19.429,1.158,30,3
		c4.06,0.708,9.925,1.672,12,5c-17.094-1.239-36.103-0.564-51-4C135.683,260.167,135.683,258.167,135.683,256.167z"/>
	<path fill-rule="evenodd" clip-rule="evenodd" d="M136.683,267.167c7.807,1.401,16.517,4.175,26,5c5.474,0.476,13.994-2.51,17,4
		c-16.684-0.003-29.369,2.53-43-3C136.683,271.167,136.683,269.167,136.683,267.167z"/>
	<path fill-rule="evenodd" clip-rule="evenodd" d="M282.683,378.167c8.766-28.901,22.823-52.51,31-82
		c15.255-3.412,12.638-24.696,35-21c4.299,4.391,6.913,7.359,6,17c-1.788,18.885-17.591,33.674-31,45c-0.993,0.839-1.014,3.076-2,4
		c-0.716,0.67-3.873,1.064-5,2c-3.985,3.309-12.09,7.769-17,12C292.067,361.73,289.358,372.994,282.683,378.167z M332.683,319.167
		c1.166-1.329,0.855-3.356,2-5c1.544-2.217,4.897-3.394,6-5c2.787-4.06,7.938-16.362,5-20c-1.742,0.075-3.11-0.223-4-1
		c-15.714,9.639-30.014,25.961-31,47C315.722,331.389,326.042,326.739,332.683,319.167z"/>
	<path fill-rule="evenodd" clip-rule="evenodd" d="M139.683,280.167c10.429,0.653,20.478,2.074,31,3c4.887,0.43,11.832-0.853,14,4
		c-14.635-1.365-35.096,3.096-45-3C139.683,282.833,139.683,281.5,139.683,280.167z"/>
	<path fill-rule="evenodd" clip-rule="evenodd" fill="#FFFFFF" d="M310.683,335.167c0.986-21.039,15.286-37.361,31-47
		c0.89,0.777,2.258,1.075,4,1c2.938,3.638-2.213,15.94-5,20c-1.103,1.606-4.456,2.783-6,5c-1.145,1.644-0.834,3.671-2,5
		C326.042,326.739,315.722,331.389,310.683,335.167z"/>
	<path fill-rule="evenodd" clip-rule="evenodd" d="M141.683,291.167c16.277,4.256,32.784,2.293,46,6c-1.261,3.732-6.861,1.923-10,2
		c-9.941,0.243-23.163-0.182-34,0C142.696,296.819,141.929,294.254,141.683,291.167z"/>
	<path fill-rule="evenodd" clip-rule="evenodd" d="M112.683,300.167c3.425,9.575,7.931,18.068,11,28c-27.334-1.136-59.82-1.994-87,0
		c-0.729-10.062,1.639-17.027,1-27C60.15,299.831,83.228,301.156,112.683,300.167z"/>
	<path fill-rule="evenodd" clip-rule="evenodd" d="M495.683,300.167c-0.638,9.645,0.974,21.223,0,28
		c-38.234-1.575-83.456-0.853-126-1c2.444-8.615,9.115-15.857,9-24c0.86-0.807,0.594-2.739,2-3
		C419.016,300.167,457.349,300.167,495.683,300.167z"/>
	<path fill-rule="evenodd" clip-rule="evenodd" d="M145.683,304.167c16.124,2.097,29.046,1.429,43,5c-0.761,3.694-6.203,1.908-9,2
		c-9.283,0.303-21.915-0.227-32,0C147.786,308.063,144.537,308.313,145.683,304.167z"/>
	<path fill-rule="evenodd" clip-rule="evenodd" d="M149.683,316.167c13.364,2.524,23.89,1.916,37,4c-2.208,4.647-10.686,2.968-17,3
		c-6.772,0.034-13.478,0.265-18-1C152.752,318.43,149.2,319.316,149.683,316.167z"/>
	<path fill-rule="evenodd" clip-rule="evenodd" d="M154.683,327.167c7.629,2.101,15.118,2.202,24,3c3.145,0.282,8.449-0.021,10,3
		c-2.537,3.691-9.675,1.972-15,2c-5.886,0.031-12.045-0.024-17,0C156.95,331.566,154.835,330.347,154.683,327.167z"/>
	<path fill-rule="evenodd" clip-rule="evenodd" d="M126.683,337.167c1.072,8.928,7.798,12.202,8,22c-27.952,4.715-62.788,2.545-95,3
		c0.214-9.451-2.963-13.144-3-24C57.193,336.768,100.605,339.297,126.683,337.167z"/>
	<path fill-rule="evenodd" clip-rule="evenodd" d="M495.683,338.167c0.777,8.777-1.467,14.533-1,23
		c-47.022,2.607-99.039-2.393-157,1c1.05-5.13,6.64-7.878,10-11c4.305-3.999,8.25-8.193,12-13
		C408.715,337.133,449.051,340.884,495.683,338.167z"/>
	<path fill-rule="evenodd" clip-rule="evenodd" d="M159.683,340.167c0.851-0.184,0.943,0.39,1,1c4.446-0.556,9.616,1.585,15,2
		c7.072,0.545,15.87-2.514,19,3c-8.907,2.004-23.2,3.132-33,1C161.516,344.333,159.85,343,159.683,340.167z"/>
	<path fill-rule="evenodd" clip-rule="evenodd" d="M166.683,354.167c10.747,2.92,26.489,0.845,38,3c-3.826,4.43-12.18,3.432-19,4
		c-5.531,0.461-10.662,1.682-16,1C168.41,359.772,166.031,358.484,166.683,354.167z"/>
	<path fill-rule="evenodd" clip-rule="evenodd" d="M170.683,367.167c10.801,2.198,26.444-0.444,37,2c-2.889,4.485-11.055,3.441-17,4
		c-6.758,0.635-13.233,1.746-19,0C172.408,370.108,169.957,370.225,170.683,367.167z"/>
	<path fill-rule="evenodd" clip-rule="evenodd" d="M488.683,374.167c0.512,4.178-0.558,6.775-2,9c-16.852-6.815-43.47-3.863-63-8
		c3.548-1.777,8.4-2.888,13-3c3.412-0.084,6.501,1.773,10,2C458.253,374.917,472.409,373.323,488.683,374.167z"/>
	<path fill-rule="evenodd" clip-rule="evenodd" d="M410.683,373.167c-4.013,4.271-12.393,4.786-19,7c-8.432,2.825-14.554,7.543-26,6
		c-10.238-1.38-16.887-10.366-27-11c0.443-0.891,0.878-1.788,2-2C359.477,373.429,384.088,375.443,410.683,373.167z"/>
	<path fill-rule="evenodd" clip-rule="evenodd" d="M41.683,374.167c6.333,0,12.667,0,19,0c-1.879,5.788-10.848,4.486-17,6
		C42.794,378.388,40.891,377.625,41.683,374.167z"/>
	<path fill-rule="evenodd" clip-rule="evenodd" d="M173.683,378.167c8.442,1.224,21.906,1.612,33,3c-5.605,6.032-25.448,6.461-33,2
		C173.683,381.5,173.683,379.833,173.683,378.167z"/>
	<path fill-rule="evenodd" clip-rule="evenodd" fill="#FFFFFF" d="M345.683,393.167c-8.001,3.946-18.168,9.203-29,12
		c-7.689,1.985-18.944,0.536-22,9c4.574,2.093,12.454,0.88,15,5c-3.107,4.726-11.184,3.394-17,5c-4.474,1.235-14.503,3.383-22,4
		c8.549-5.784,15.853-12.813,16-27c11.771-0.771,20.679,1.321,32,1c0.82-10.153-12.562-6.105-20-8c-0.959-3.044,4.163-7.533,5-12
		C319.14,384.375,333.524,387.658,345.683,393.167z"/>
	<path fill-rule="evenodd" clip-rule="evenodd" fill="#FFFFFF" d="M491.683,397.167c-6.755,29.012-24.493,58.329-42,80
		c-1.336,1.653-2.683,3.318-4,5c-5.84,7.453-13.839,15.929-22,23c-5.181,4.489-10.205,7.208-16,12c-3,2.48-5.78,6.991-11,8
		c-5.34,1.031-12.284-1.964-20-3c-7.587-1.019-13.644-0.391-18-5c1.05-16.573,24.876-7.478,36-12c-2.046-3.779-7.255-2.576-11-3
		c-12.892-1.457-26.168-0.317-44-2c-5.969-0.563-13.367-0.697-19-2c-9.619-2.225-17.109-10.81-25-16
		c-13.555-1.434-27.467-1.852-39-4c-6.929-1.291-15.039-3.082-18-10c5.156-7.096,22.905-3.837,33-5c12.357-1.423,24.657-6.107,36-9
		c10.293-2.625,18.825-4,28-7c7.184-2.349,14.331-4.825,22-8c3.788-1.568,7.629-2.568,11-4c3.364-1.429,6.519-4.589,10-6
		c3.24-1.313,7.403-0.914,11-2c1.496-0.451,2.547-1.604,4-2c4.584-1.25,9.98-2.463,15-4c2.669-0.817,6.489-1.155,8-4
		c-0.773-3.188-6.141-1.309-8-1c-7.105,1.181-15.835,5.513-25,5c-1.856-1.477-5.844-0.823-6-4c-17.857,2.489-44.633,9.323-60,2
		c1.587-3.08,7.606-1.728,9-5c0.888-3.649-1.767-5.326,0-7c11.252-0.957,21.591-8.756,34-10c6.336-0.636,12.662,0.78,19,0
		c15.503-1.908,29.637-9.406,44-9C444.22,393.296,474.365,388.817,491.683,397.167z M377.683,474.167c-9.766,0-20.788,0.917-26,2
		c-11.982,2.49-26.318,3.036-37,5c-3.593,0.66-9.368,0.24-11,4c33.44-2.347,63.871-2.577,93-8
		C392.496,472.161,383.874,474.167,377.683,474.167z"/>
	<path fill-rule="evenodd" clip-rule="evenodd" d="M175.683,389.167c12.559,2.815,23.563,0.451,35,5c-2.337,3.328-13.709,3.875-22,3
		c-5.021-0.53-9.914-2.625-13-4C175.683,391.833,175.683,390.5,175.683,389.167z"/>
	<path fill-rule="evenodd" clip-rule="evenodd" d="M173.683,400.167c21.345,7.643,45.081,7.306,69,8c-5.027,5.389-15.316,3.506-24,4
		c-15.062,0.856-31.818,1.623-43-4C175.376,405.139,172.588,404.594,173.683,400.167z"/>
	<path fill-rule="evenodd" clip-rule="evenodd" fill="#FFFFFF" d="M46.683,415.167c8.021,7.979,17.42,14.58,29,19
		c-0.398,4.269-8.38,0.953-12,2c0.459,5.54,5.266,6.734,6,12c12.464,0.072,25.637-3.394,39,0c7.136,1.812,13.045,8.344,20,11
		c7.081,2.705,15.706,2.649,24,4c22.731,3.702,47.221,7.293,75,6c5.707,6.434,9.506,10.566,20,14c9.876,3.231,23.49,3.622,37,5
		c5.805,0.592,10.029,4.704,16,9c6.476,4.66,11.09,8.979,22,10c5.151,0.482,11.087,0.476,17-1c5.925,5.604,5.049,13.905,11,19
		c7.733,6.621,20.094,5.593,33,8c-42.26,27.646-100.743,37.104-153,29c-5.837-0.905-8.523-1.51-15-3c-16.9-3.888-33.266-9.146-48-16
		c-13.912-6.473-25.237-12.105-38-21C94.405,497.581,63.13,457.653,46.683,415.167z M106.683,491.167
		c12.932,3.547,33.066-1.257,46-1c32.915,0.653,68.566,2.421,100,0c-10.64,0.306-15.555-5.111-22-9
		c-44.397,1.898-102.499,0.259-133,0C99.522,486.793,102.233,489.946,106.683,491.167z M300.683,532.167c-46.4,0-99.797,0.268-132-1
		c-1.003-0.003-1.19,0.811-2,1c-0.043,1.377,0.471,2.195,1,3c13.938,4.815,30.192,3,46,3c48.801,0,100.193,0.821,146-1
		C346.179,529.735,323.696,532.167,300.683,532.167z"/>
	<path fill-rule="evenodd" clip-rule="evenodd" d="M396.683,477.167c-29.129,5.423-59.56,5.653-93,8c1.632-3.76,7.407-3.34,11-4
		c10.682-1.964,25.018-2.51,37-5c5.212-1.083,16.234-2,26-2C383.874,474.167,392.496,472.161,396.683,477.167z"/>
	<path fill-rule="evenodd" clip-rule="evenodd" d="M97.683,481.167c30.501,0.259,88.603,1.898,133,0c6.445,3.889,11.36,9.306,22,9
		c-31.434,2.421-67.085,0.653-100,0c-12.934-0.257-33.068,4.547-46,1C102.233,489.946,99.522,486.793,97.683,481.167z"/>
	<path fill-rule="evenodd" clip-rule="evenodd" d="M359.683,537.167c-45.807,1.821-97.199,1-146,1c-15.808,0-32.062,1.815-46-3
		c-0.529-0.805-1.043-1.623-1-3c0.81-0.189,0.997-1.003,2-1c32.203,1.268,85.6,1,132,1
		C323.696,532.167,346.179,529.735,359.683,537.167z"/>
	<path fill-rule="evenodd" clip-rule="evenodd" fill="#FFFFFF" d="M398.683,91.167c-6.855,2.218-10.893,8.703-16,13
		c-14.742,12.401-31.916,23.486-56,28c-23.132,10.791-55.706,10.025-78,21c-5.122,2.521-8.688,7.448-14,9
		c-4.743,8.291-14.686,16.613-17,30c-1.6,9.253-2.005,21.685,0,30c0.829,3.438,4.741,7.038,2,10c-9.661-0.028-14.649-15.043-16-24
		c-2.025-13.431,4.782-25.575,7-35c2.604-11.065,12.124-20.44,20-28c4.761-4.569,10.928-5.85,19-10c9.304-4.784,16.599-9.332,29-13
		c24.785-7.332,55.97-13.673,78-25c12.455-6.404,20.395-16.431,30-25c5.045-9.207,12.931-23.274,10-43
		c-1.141-7.675-5.431-15.059-10-19c2.896-0.864,7.46,2.041,10,4c3.462,2.67,13.798,14.989,15,20c4.603,19.182-5.326,36.639-9,51
		c6.848-5.153,9.22-14.78,11-25c11.437,11.887,3.137,43.77-6,58c-4.492,6.997-12.103,14.452-19,21
		c-10.556,10.021-28.606,18.596-44,25c-19.922,8.288-43.498,10.11-63,18c10.418-13.002,29.153-17.152,45-26
		c2.745-1.532,7.097-4.792,11-7c9.491-5.369,18.729-10.774,28-17C379.151,123.122,394.023,110.088,398.683,91.167z"/>
	<path fill-rule="evenodd" clip-rule="evenodd" fill="#FFFFFF" d="M370.683,121.167c-9.855,13.202-37.384,26.832-57,36
		c-11.964,5.591-24.613,12.746-36,19c-11.67,7.996-20.669,18.664-31,28c-0.582,6.085-5.5,13.88-1,19c-2.149,2.083-4.105-4.511-6-6
		c-0.706-6.764,0.141-12.729,2-18c6.864-19.465,25.134-32.615,45-41C314.37,146.481,347.423,137.382,370.683,121.167z"/>
	<path fill-rule="evenodd" clip-rule="evenodd" fill="#FFFFFF" d="M292.683,451.167c-7.289,8.83-27.435,7.511-45,9
		c-26.687,2.262-55.505,2.123-83-2c-15.459-2.318-31.112-6.371-44-12c4.668-2.433,10.772-0.074,16,1
		c31.028,6.376,79.387,10.305,121,8C269.485,454.513,284.09,453.269,292.683,451.167z"/>
	<path fill-rule="evenodd" clip-rule="evenodd" d="M417.683,41.167c7.427,0.041,14.354-0.548,24,1c11.056,7.229,19.625,12.104,25,26
		c8.15,21.069-3.215,52.785-16,67c20.131,19.257,37.971,42.591,52,69c7.03,13.234,11.861,28.417,17,44
		c6.709,20.343,10.375,38.66,12,63c5.318,79.64-26.317,147.573-66,195c-18.52,22.135-44.02,41.113-69,55
		c-32.256,17.932-69.533,31.616-116,34c-110.851,5.687-200.229-55.795-243-130c-11.084-19.229-21.913-40.834-28-65
		c-3.165-12.566-6.442-25.653-8-40c-8.868-81.687,18.319-151.996,58-200c29.772-36.017,65.746-64.329,115-82
		c53.13-19.061,132.964-24.64,187,1c8.059-4.255,20.531-15.245,26-26c5.957-11.716,3.125-29.688-6-40
		c-4.963-1.625-11.658-4.852-18-2c1.478-10.792,13.057-11.663,20-11c14.444,1.378,25.316,14.776,30,26
		C415.772,31.173,416.332,36.41,417.683,41.167z M365.683,132.167c-9.271,6.226-18.509,11.631-28,17c-3.903,2.208-8.255,5.468-11,7
		c-15.847,8.848-34.582,12.998-45,26c19.502-7.89,43.078-9.712,63-18c15.394-6.404,33.444-14.979,44-25
		c6.897-6.548,14.508-14.003,19-21c9.137-14.23,17.437-46.113,6-58c-1.78,10.22-4.152,19.847-11,25c3.674-14.361,13.603-31.818,9-51
		c-1.202-5.011-11.538-17.33-15-20c-2.54-1.959-7.104-4.864-10-4c4.569,3.941,8.859,11.325,10,19c2.931,19.726-4.955,33.793-10,43
		c-9.605,8.569-17.545,18.596-30,25c-22.03,11.327-53.215,17.668-78,25c-12.401,3.668-19.696,8.216-29,13
		c-8.072,4.15-14.239,5.431-19,10c-7.876,7.56-17.396,16.935-20,28c-2.218,9.425-9.025,21.569-7,35c1.351,8.957,6.339,23.972,16,24
		c2.741-2.962-1.171-6.562-2-10c-2.005-8.315-1.6-20.747,0-30c2.314-13.387,12.257-21.709,17-30c5.312-1.552,8.878-6.479,14-9
		c22.294-10.975,54.868-10.209,78-21c24.084-4.514,41.258-15.599,56-28c5.107-4.297,9.145-10.782,16-13
		C394.023,110.088,379.151,123.122,365.683,132.167z M428.683,73.167c2.781,18.771-6.896,36-13,45c-16.971,25.021-46.947,40.7-72,51
		c35.139-2.632,74.774-10.967,97-38c1.368-1.665,2.277-4.552,4-7c7.165-10.182,14.383-25.429,13-43
		c-0.863-10.971-6.385-18.428-12-24c-9.584-3.083-16.304-9.03-29-9C420.493,58.003,427.147,62.806,428.683,73.167z M298.683,93.167
		c-40.977-6.434-80.668,3.071-110,12c-6.558,1.997-13.837,6.118-18,8c-1.748,0.791-3.843,1.469-5,2
		c-27.025,12.394-49.338,28.338-69,48c-50.856,50.856-87.336,146.227-54,240c0.009-13.269,10.41-18.796,23-24
		c23.937-9.894,57.727-13.043,82-15c-5.905-18.168-14.717-35.317-21-54c-6.252-18.591-11.224-38.071-18-57
		c-6.868-8.465-13.56-17.107-12-34c19.931-22.402,64.75-19.917,102-25c0.93-10.932,2.25-17.678,5-25
		c5.181-13.799,13.522-25.913,23-33c10.018-7.49,22.41-14.115,34-19c18.485-7.791,41.454-8.833,61-18
		C312.688,97.909,306.22,94.35,298.683,93.167z M286.683,158.167c-19.866,8.385-38.136,21.535-45,41c-1.859,5.271-2.706,11.236-2,18
		c1.895,1.489,3.851,8.083,6,6c-4.5-5.12,0.418-12.915,1-19c10.331-9.336,19.33-20.004,31-28c11.387-6.254,24.036-13.409,36-19
		c19.616-9.168,47.145-22.798,57-36C347.423,137.382,314.37,146.481,286.683,158.167z M499.683,287.167
		c-5.661-32.576-18.302-61.379-33-84c-0.828-1.275-0.205-3.731-1-5c-1.361-2.171-3.56-4.012-5-6c-8.729-12.048-23.209-29.854-33-36
		c-0.057-0.61-0.149-1.184-1-1c-33.412,27.255-101.289,20.043-148,34c-0.752,4.248-7.632,2.368-9,6
		c32.492,4.615,91.383,12.431,69,51c22.968,7.248,38.691,23.033,34,53c-1.771,11.313-10.412,25.941-19,36
		c-10.146,11.885-26.71,27.583-38,35c-2.033,1.336-4.298,1.521-5,4c5.778,3.889,16.643,2.691,20,9c0.872-1.461,0.794-3.872,4-3
		c5.516,4.164,12.411,3.471,19,6c4.187,1.607,7.1,5.454,12,6c4.116,0.459,10.969-1.033,15-2c9.517-2.282,18.22-6.846,28-8
		c13.911-1.642,31.421,1.347,48,2c16.074,0.633,24.049,1.521,37,6C504.437,361.082,505.021,317.885,499.683,287.167z
		 M107.683,217.167c-1.358,3.975-5.218,5.449-6,10c3.071,8.263,9.005,13.662,14,20c8.787,22.898,17.125,46.207,25,70
		c9.867,29.813,23.495,54.428,24,91c3.807,7.054,8.749,10.112,17,13c23.589,8.255,67.761,6.779,88-3c3.82-7.18,6.388-15.612,8-25
		c14.11-2.557,18.905-14.429,25-25c16.291-10.122,34.051-24.38,45-39c4.882-6.519,8.479-10.7,12-18c9.493-19.68,4.53-40.591-12-54
		c-9.026-2.489-16.116-2.016-21,4c-2.686,8.981-2.771,20.562-9,26c1.371-13.67,6.857-25.362,6-36c-0.709-3.958-7.795-1.539-8-6
		c4.88-3.746,14.66-5.085,18-10c0.141-0.207,1.98-5.335,2-6c0.345-11.662-25.234-19.073-38-22c-12.445-2.853-27.954-3.568-41-3
		c-3.111,2.889-6.919,5.081-7,11c13.356,3.713,43.233,3.676,60,6c-14.257-6.076-33.879-6.788-52-9c14.729-2.369,32.144,0.855,45,4
		c5.667,1.386,12.823,1.992,15,7c-4.195,7.147-13.762,9.975-23,12c-26.971,5.913-68.218,4.223-104,2c-18.359-1.141-35.824-0.34-50-4
		c-8.055-2.08-20.666-6.551-15-15c4.851-0.185,1.874,7.46,8,6c16.281-8.25,42.581-6.694,67-9c0.136-1.649-1.094-9.202-2-13
		C165.609,204.426,132.668,206.819,107.683,217.167z M143.683,375.167c-9.03-2.556-28.562,0.086-41,2
		c-7.852,1.208-15.904,3.944-23,6c-6.363,1.843-16.825,5.173-21,8c-13.815,9.354-7.683,23.1,5,28c3.822,1.477,5.306,2.462,9,4
		c6.429,2.677,11.424,4.172,20,7c9.019,2.975,19.186,6.298,26,8c5.252,1.312,11.436,0.889,17,2c5.337,1.065,10.292,3.242,15,4
		c15.574,2.508,32.909,3.087,49,4c2.795,0.158,5.193,1.802,8,2c13.741,0.972,26.77-1.249,40-2c5.236-0.297,10.596,0.456,16,0
		c14.506-1.225,27.911-4.474,39-6c14.103-1.941,23.788-5.542,33-11c-6.818-0.246-17.852-2.959-24-7
		c-27.394,8.975-58.216,11.015-89,12c-35.614,1.141-68.734-4.193-101-9c-19.188-6.812-44.508-7.492-58-20
		c-0.79-7.79,1.093-12.907,6-15c0.87,4.465-4.035,6.465-2,9c10.215,11.546,31.523,15.319,50,19c10.64,2.119,20.584,4.732,30,3
		c-4.876-2.124-14.087,0.087-16-5c7.675-0.659,17.989,1.322,24-1c-7.653-6.955-27.322-0.363-35-5c7.421-2.912,16.653-4.013,26-5
		c-8.947-10.012-31.003,0.742-43-3c11.242-5.758,27.195-6.805,43-8c0.079-3.576-4.502-3.708-6-4c-14.945-2.915-35.639,6.363-49,4
		c15.246-8.087,36.607-10.06,60-10C151.967,380.275,148.436,376.512,143.683,375.167z M303.683,382.167
		c-0.837,4.467-5.959,8.956-5,12c7.438,1.895,20.82-2.153,20,8c-11.321,0.321-20.229-1.771-32-1c-0.147,14.187-7.451,21.216-16,27
		c7.497-0.617,17.526-2.765,22-4c5.816-1.606,13.893-0.274,17-5c-2.546-4.12-10.426-2.907-15-5c3.056-8.464,14.311-7.015,22-9
		c10.832-2.797,20.999-8.054,29-12C333.524,387.658,319.14,384.375,303.683,382.167z M423.683,388.167
		c-14.363-0.406-28.497,7.092-44,9c-6.338,0.78-12.664-0.636-19,0c-12.409,1.244-22.748,9.043-34,10c-1.767,1.674,0.888,3.351,0,7
		c-1.394,3.272-7.413,1.92-9,5c15.367,7.323,42.143,0.489,60-2c0.156,3.177,4.144,2.523,6,4c9.165,0.513,17.895-3.819,25-5
		c1.859-0.309,7.227-2.188,8,1c-1.511,2.845-5.331,3.183-8,4c-5.02,1.537-10.416,2.75-15,4c-1.453,0.396-2.504,1.549-4,2
		c-3.597,1.086-7.76,0.687-11,2c-3.481,1.411-6.636,4.571-10,6c-3.371,1.432-7.212,2.432-11,4c-7.669,3.175-14.816,5.651-22,8
		c-9.175,3-17.707,4.375-28,7c-11.343,2.893-23.643,7.577-36,9c-10.095,1.163-27.844-2.096-33,5c2.961,6.918,11.071,8.709,18,10
		c11.533,2.148,25.445,2.566,39,4c7.891,5.19,15.381,13.775,25,16c5.633,1.303,13.031,1.437,19,2c17.832,1.683,31.108,0.543,44,2
		c3.745,0.424,8.954-0.779,11,3c-11.124,4.522-34.95-4.573-36,12c4.356,4.609,10.413,3.981,18,5c7.716,1.036,14.66,4.031,20,3
		c5.22-1.009,8-5.52,11-8c5.795-4.792,10.819-7.511,16-12c8.161-7.071,16.16-15.547,22-23c1.317-1.682,2.664-3.347,4-5
		c17.507-21.671,35.245-50.988,42-80C474.365,388.817,444.22,393.296,423.683,388.167z M129.683,522.167
		c12.763,8.895,24.088,14.527,38,21c14.734,6.854,31.1,12.112,48,16c6.477,1.49,9.163,2.095,15,3c52.257,8.104,110.74-1.354,153-29
		c-12.906-2.407-25.267-1.379-33-8c-5.951-5.095-5.075-13.396-11-19c-5.913,1.476-11.849,1.482-17,1c-10.91-1.021-15.524-5.34-22-10
		c-5.971-4.296-10.195-8.408-16-9c-13.51-1.378-27.124-1.769-37-5c-10.494-3.434-14.293-7.566-20-14
		c-27.779,1.293-52.269-2.298-75-6c-8.294-1.351-16.919-1.295-24-4c-6.955-2.656-12.864-9.188-20-11
		c-13.363-3.394-26.536,0.072-39,0c-0.734-5.266-5.541-6.46-6-12c3.62-1.047,11.602,2.269,12-2c-11.58-4.42-20.979-11.021-29-19
		C63.13,457.653,94.405,497.581,129.683,522.167z M257.683,455.167c-41.613,2.305-89.972-1.624-121-8
		c-5.228-1.074-11.332-3.433-16-1c12.888,5.629,28.541,9.682,44,12c27.495,4.123,56.313,4.262,83,2c17.565-1.489,37.711-0.17,45-9
		C284.09,453.269,269.485,454.513,257.683,455.167z"/>
	<path fill-rule="evenodd" clip-rule="evenodd" fill="#FFFFFF" d="M198.683,202.167c0.906,3.798,2.136,11.351,2,13
		c-24.419,2.306-50.719,0.75-67,9c-6.126,1.46-3.149-6.185-8-6c-5.666,8.449,6.945,12.92,15,15c14.176,3.66,31.641,2.859,50,4
		c35.782,2.223,77.029,3.913,104-2c9.238-2.025,18.805-4.853,23-12c-2.177-5.008-9.333-5.614-15-7c-12.856-3.145-30.271-6.369-45-4
		c18.121,2.212,37.743,2.924,52,9c-16.767-2.324-46.644-2.287-60-6c0.081-5.919,3.889-8.111,7-11c13.046-0.568,28.555,0.147,41,3
		c12.766,2.927,38.345,10.338,38,22c-0.02,0.665-1.859,5.793-2,6c-3.34,4.915-13.12,6.254-18,10c0.205,4.461,7.291,2.042,8,6
		c0.857,10.638-4.629,22.33-6,36c6.229-5.438,6.314-17.019,9-26c4.884-6.016,11.974-6.489,21-4c16.53,13.409,21.493,34.32,12,54
		c-3.521,7.3-7.118,11.481-12,18c-10.949,14.62-28.709,28.878-45,39c-6.095,10.571-10.89,22.443-25,25c-1.612,9.388-4.18,17.82-8,25
		c-20.239,9.779-64.411,11.255-88,3c-8.251-2.888-13.193-5.946-17-13c-0.505-36.572-14.133-61.187-24-91
		c-7.875-23.793-16.213-47.102-25-70c-4.995-6.338-10.929-11.737-14-20c0.782-4.551,4.642-6.025,6-10
		C132.668,206.819,165.609,204.426,198.683,202.167z M110.683,224.167c2.213,5.122,5.673,11.045,10,13c1.454,0.657,5.56,1.481,8,2
		c3.745,0.796,9.659,1.815,14,2c3.388,0.144,9.316,1.492,10-2c-14.95-0.3-32.442-6.041-38-19c-1,0-2,0-3,0
		C111.907,222.057,110.556,222.373,110.683,224.167z M157.683,253.167c12.951,1.993,25.609,4.033,37,4
		c33.375-0.096,68.283,0.417,90-7c-51.306,2.555-123.53,6.647-165-12C122.282,251.478,141.012,250.601,157.683,253.167z
		 M135.683,262.167c14.897,3.436,33.906,2.761,51,4c-2.075-3.328-7.94-4.292-12-5c-10.571-1.842-21.448-1.671-30-3
		c-2.963-0.704-4.354-2.979-9-2C135.683,258.167,135.683,260.167,135.683,262.167z M136.683,273.167c13.631,5.53,26.316,2.997,43,3
		c-3.006-6.51-11.526-3.524-17-4c-9.483-0.825-18.193-3.599-26-5C136.683,269.167,136.683,271.167,136.683,273.167z
		 M299.683,355.167c4.91-4.231,13.015-8.691,17-12c1.127-0.936,4.284-1.33,5-2c0.986-0.924,1.007-3.161,2-4
		c13.409-11.326,29.212-26.115,31-45c0.913-9.641-1.701-12.609-6-17c-22.362-3.696-19.745,17.588-35,21
		c-8.177,29.49-22.234,53.099-31,82C289.358,372.994,292.067,361.73,299.683,355.167z M139.683,284.167
		c9.904,6.096,30.365,1.635,45,3c-2.168-4.853-9.113-3.57-14-4c-10.522-0.926-20.571-2.347-31-3
		C139.683,281.5,139.683,282.833,139.683,284.167z M143.683,299.167c10.837-0.182,24.059,0.243,34,0c3.139-0.077,8.739,1.732,10-2
		c-13.216-3.707-29.723-1.744-46-6C141.929,294.254,142.696,296.819,143.683,299.167z M147.683,311.167
		c10.085-0.227,22.717,0.303,32,0c2.797-0.092,8.239,1.694,9-2c-13.954-3.571-26.876-2.903-43-5
		C144.537,308.313,147.786,308.063,147.683,311.167z M151.683,322.167c4.522,1.265,11.228,1.034,18,1c6.314-0.032,14.792,1.647,17-3
		c-13.11-2.084-23.636-1.476-37-4C149.2,319.316,152.752,318.43,151.683,322.167z M156.683,335.167c4.955-0.024,11.114,0.031,17,0
		c5.325-0.028,12.463,1.691,15-2c-1.551-3.021-6.855-2.718-10-3c-8.882-0.798-16.371-0.899-24-3
		C154.835,330.347,156.95,331.566,156.683,335.167z M161.683,347.167c9.8,2.132,24.093,1.004,33-1c-3.13-5.514-11.928-2.455-19-3
		c-5.384-0.415-10.554-2.556-15-2c-0.057-0.61-0.149-1.184-1-1C159.85,343,161.516,344.333,161.683,347.167z M169.683,362.167
		c5.338,0.682,10.469-0.539,16-1c6.82-0.568,15.174,0.43,19-4c-11.511-2.155-27.253-0.08-38-3
		C166.031,358.484,168.41,359.772,169.683,362.167z M171.683,373.167c5.767,1.746,12.242,0.635,19,0c5.945-0.559,14.111,0.485,17-4
		c-10.556-2.444-26.199,0.198-37-2C169.957,370.225,172.408,370.108,171.683,373.167z M173.683,383.167
		c7.552,4.461,27.395,4.032,33-2c-11.094-1.388-24.558-1.776-33-3C173.683,379.833,173.683,381.5,173.683,383.167z M175.683,393.167
		c3.086,1.375,7.979,3.47,13,4c8.291,0.875,19.663,0.328,22-3c-11.437-4.549-22.441-2.185-35-5
		C175.683,390.5,175.683,391.833,175.683,393.167z M175.683,408.167c11.182,5.623,27.938,4.856,43,4c8.684-0.494,18.973,1.389,24-4
		c-23.919-0.694-47.655-0.357-69-8C172.588,404.594,175.376,405.139,175.683,408.167z"/>
	<path fill-rule="evenodd" clip-rule="evenodd" fill="#FFFFFF" d="M493.683,390.167c-12.951-4.479-20.926-5.367-37-6
		c-16.579-0.653-34.089-3.642-48-2c-9.78,1.154-18.483,5.718-28,8c-4.031,0.967-10.884,2.459-15,2c-4.9-0.546-7.813-4.393-12-6
		c-6.589-2.529-13.484-1.836-19-6c-3.206-0.872-3.128,1.539-4,3c-3.357-6.309-14.222-5.111-20-9c0.702-2.479,2.967-2.664,5-4
		c11.29-7.417,27.854-23.115,38-35c8.588-10.059,17.229-24.687,19-36c4.691-29.967-11.032-45.752-34-53
		c22.383-38.569-36.508-46.385-69-51c1.368-3.632,8.248-1.752,9-6c46.711-13.957,114.588-6.745,148-34c0.851-0.184,0.943,0.39,1,1
		c9.791,6.146,24.271,23.952,33,36c1.44,1.988,3.639,3.829,5,6c0.795,1.269,0.172,3.725,1,5c14.698,22.621,27.339,51.424,33,84
		C505.021,317.885,504.437,361.082,493.683,390.167z M442.683,179.167c-3.346-4.086-10.259-14.135-15-13
		c-5.771,1.381-10.661,4.864-16,7c-16.047,6.42-35.02,10.557-55,13c-20.271,2.479-40.452,0.801-56,8c51.304,2.05,98.406,0.414,152,1
		C451.026,189.423,447.239,184.731,442.683,179.167z M347.683,213.167c3.053,11.486,4.212,16.031,0,28c6.189,8.112,17.466,7,29,7
		c34.827,0,76.699,0.948,105-1c-5.952-17.714-14.76-32.574-24-47c-41.333,0-82.667,0-124,0
		C335.671,207.178,344.03,207.819,347.683,213.167z M370.683,255.167c-1.003-0.003-1.19,0.81-2,1c-0.61,0.057-1.184,0.149-1,1
		c6.477,8.856,12.065,18.602,13,33c31.656,2.24,75.432,0.4,112,1c-0.57-14.096-5.29-24.043-8-36
		C449.069,257.511,392.951,255.266,370.683,255.167z M380.683,300.167c-1.406,0.261-1.14,2.193-2,3c0.115,8.143-6.556,15.385-9,24
		c42.544,0.147,87.766-0.575,126,1c0.974-6.777-0.638-18.355,0-28C457.349,300.167,419.016,300.167,380.683,300.167z
		 M359.683,338.167c-3.75,4.807-7.695,9.001-12,13c-3.36,3.122-8.95,5.87-10,11c57.961-3.393,109.978,1.607,157-1
		c-0.467-8.467,1.777-14.223,1-23C449.051,340.884,408.715,337.133,359.683,338.167z M446.683,374.167
		c-3.499-0.227-6.588-2.084-10-2c-4.6,0.112-9.452,1.223-13,3c19.53,4.137,46.148,1.185,63,8c1.442-2.225,2.512-4.822,2-9
		C472.409,373.323,458.253,374.917,446.683,374.167z M340.683,373.167c-1.122,0.212-1.557,1.109-2,2c10.113,0.634,16.762,9.62,27,11
		c11.446,1.543,17.568-3.175,26-6c6.607-2.214,14.987-2.729,19-7C384.088,375.443,359.477,373.429,340.683,373.167z"/>
	<path fill-rule="evenodd" clip-rule="evenodd" fill="#FFFFFF" d="M151.683,386.167c-23.393-0.06-44.754,1.913-60,10
		c13.361,2.363,34.055-6.915,49-4c1.498,0.292,6.079,0.424,6,4c-15.805,1.195-31.758,2.242-43,8c11.997,3.742,34.053-7.012,43,3
		c-9.347,0.987-18.579,2.088-26,5c7.678,4.637,27.347-1.955,35,5c-6.011,2.322-16.325,0.341-24,1c1.913,5.087,11.124,2.876,16,5
		c-9.416,1.732-19.36-0.881-30-3c-18.477-3.681-39.785-7.454-50-19c-2.035-2.535,2.87-4.535,2-9c-4.907,2.093-6.79,7.21-6,15
		c13.492,12.508,38.812,13.188,58,20c32.266,4.807,65.386,10.141,101,9c30.784-0.985,61.606-3.025,89-12
		c6.148,4.041,17.182,6.754,24,7c-9.212,5.458-18.897,9.059-33,11c-11.089,1.526-24.494,4.775-39,6c-5.404,0.456-10.764-0.297-16,0
		c-13.23,0.751-26.259,2.972-40,2c-2.807-0.198-5.205-1.842-8-2c-16.091-0.913-33.426-1.492-49-4c-4.708-0.758-9.663-2.935-15-4
		c-5.564-1.111-11.748-0.688-17-2c-6.814-1.702-16.981-5.025-26-8c-8.576-2.828-13.571-4.323-20-7c-3.694-1.538-5.178-2.523-9-4
		c-12.683-4.9-18.815-18.646-5-28c4.175-2.827,14.637-6.157,21-8c7.096-2.056,15.148-4.792,23-6c12.438-1.914,31.97-4.556,41-2
		C148.436,376.512,151.967,380.275,151.683,386.167z"/>
</g>
</svg>
