<?xml version="1.0" encoding="UTF-8" standalone="no"?>
<svg width="30px" height="31px" viewBox="0 0 30 31" version="1.1" xmlns="http://www.w3.org/2000/svg" xmlns:xlink="http://www.w3.org/1999/xlink">
    <!-- Generator: Sketch Beta 3.6 (26304) - http://www.bohemiancoding.com/sketch -->
    <title>Shape</title>
    <desc>Created with Sketch Beta.</desc>
    <defs></defs>
    <g id="Core-Experience" stroke="none" stroke-width="1" fill="none" fill-rule="evenodd">
        <g id="My-Inbox" transform="translate(-210.000000, -1366.000000)" fill="#F06721">
            <g id="Body" transform="translate(195.000000, 306.000000)">
                <g id="Mention" transform="translate(0.000000, 988.000000)">
                    <path d="M31.1864498,72 C28.0366925,72 25.2003977,72.6889888 22.7267632,74.0825373 C20.2530557,75.4734541 18.3284923,77.4602275 16.9945222,79.9934403 C15.6605521,82.5215359 15,85.4018383 15,88.5956031 C15,92.9912423 16.2537038,96.537287 18.7946655,99.0653096 C21.3356271,101.593332 24.9128134,102.836729 29.3680309,102.836729 C32.3545509,102.836729 35.051001,102.321284 37.4391789,101.277384 C37.6981802,101.163418 37.879547,100.888846 37.879547,100.606525 L37.879547,98.2338444 C37.879547,97.9981627 37.7578317,97.7650396 37.5635259,97.6303121 C37.3692931,97.4982163 37.1076601,97.4671478 36.8874761,97.5500458 C34.2687337,98.5473069 31.7665893,99.0368728 29.3680309,99.0368728 C25.8945037,99.0368728 23.3612909,98.1173194 21.6077138,96.3274835 C19.8489464,94.5376477 18.9423321,91.9732933 18.9423321,88.4713293 C18.9423321,85.8888456 19.4396468,83.6508928 20.4161468,81.7263295 C21.3900883,79.8043978 22.7758879,78.3538296 24.6201119,77.3229414 C26.4591456,76.2894216 28.6349614,75.763597 31.1863767,75.763597 C33.1912063,75.763597 34.9266541,76.1754552 36.434169,76.988791 C37.9416839,77.7995682 39.0787896,78.9314837 39.8947571,80.4338083 C40.7106515,81.9309427 41.1276999,83.6871515 41.1276999,85.741179 C41.1276999,87.7045596 40.7987397,89.2509649 40.1952074,90.3855121 C39.5916751,91.5226178 38.9958917,91.9163466 38.2007583,91.9163466 C37.5739064,91.9163466 37.2630756,91.755741 37.0066328,91.4138417 C36.7501901,91.0719424 36.5585159,90.4373416 36.5585159,89.471149 L36.5585159,89.0774202 L37.0040011,80.7290684 C37.0195719,80.407857 36.7993879,80.0892774 36.4937473,79.9934403 C35.628582,79.7163096 34.6676527,79.5038744 33.6108133,79.3510907 C32.5617958,79.1982338 31.6111739,79.1205261 30.7589477,79.1205261 C28.3111915,79.1205261 26.2260225,79.9675621 24.6874391,81.6304924 C23.1514143,83.2908642 22.3872763,85.4744288 22.3872763,88.0439003 C22.3872763,90.2533432 22.9286717,92.1001988 24.0657774,93.4782496 C25.2055148,94.8614176 26.8606232,95.5737261 28.8110648,95.5737261 C30.1424763,95.5737261 31.3494678,95.2447659 32.3648583,94.5790967 C32.9554515,94.1879995 33.460515,93.695802 33.8905026,93.1311601 C34.1443136,93.6311065 34.4836543,94.0817819 34.9162004,94.4625716 C35.7502242,95.1981997 36.8148125,95.5737992 37.9856183,95.5737992 C39.3766082,95.5737992 40.6587489,95.120492 41.731086,94.2502096 C42.7982329,93.379854 43.6090101,92.1702308 44.1685348,90.6730964 C44.7254279,89.1785206 45,87.5414685 45,85.7775108 C45,83.0914412 44.4301678,80.6799437 43.2774913,78.5818355 C42.124961,76.4836543 40.4698526,74.841485 38.361364,73.7017476 C36.2529485,72.5620833 33.8491998,72 31.1864498,72 L31.1864498,72 L31.1864498,72 Z M30.7590208,82.7779787 C31.4894587,82.7779787 32.1681401,82.8453059 32.7975506,82.9722114 L32.5799982,87.0181294 L32.5799982,87.0206879 C32.4789709,88.802775 32.0981812,90.0667862 31.5543004,90.8257339 C31.0077878,91.5846817 30.3420455,91.9162004 29.293028,91.9162004 C28.2932083,91.9162004 27.7026151,91.6390697 27.2648787,91.0691645 C26.829701,90.5018909 26.5448214,89.5305811 26.5448214,88.113713 C26.5448214,86.3212455 26.9514893,85.0209755 27.6923077,84.1143612 C28.4329798,83.2079662 29.3810431,82.7779787 30.7590208,82.7779787 L30.7590208,82.7779787 L30.7590208,82.7779787 Z" id="Shape"></path>
                </g>
            </g>
        </g>
    </g>
</svg>