<?xml version="1.0" encoding="UTF-8" standalone="no"?>
<svg width="32px" height="30px" viewBox="0 0 32 30" version="1.1" xmlns="http://www.w3.org/2000/svg" xmlns:xlink="http://www.w3.org/1999/xlink">
    <!-- Generator: Sketch Beta 3.6 (26304) - http://www.bohemiancoding.com/sketch -->
    <title>Group</title>
    <desc>Created with Sketch Beta.</desc>
    <defs></defs>
    <g id="Core-Experience" stroke="none" stroke-width="1" fill="none" fill-rule="evenodd">
        <g id="My-Inbox" transform="translate(-211.000000, -832.000000)" fill="#82B2EB">
            <g id="Body" transform="translate(195.000000, 306.000000)">
                <g id="New-Post" transform="translate(0.000000, 439.000000)">
                    <g id="Group" transform="translate(16.000000, 87.000000)">
                        <path d="M30.7340426,3.22340426 L27.9459574,0.439148936 C27.6580851,0.151276596 27.2795745,0.0070212766 26.9017021,0.0070212766 C26.5231915,0.0070212766 26.1446809,0.150638298 25.8574468,0.438510638 L23.627234,2.66234043 L28.5038298,7.53 L30.7340426,5.30680851 C31.3104255,4.73106383 31.3104255,3.79723404 30.7340426,3.22340426 L30.7340426,3.22340426 Z" id="Shape"></path>
                        <path d="M9.1506383,17.112766 L14.027234,21.9810638 L27.4602128,8.57297872 L22.583617,3.70468085 L9.1506383,17.112766 Z" id="Shape"></path>
                        <path d="M8.09808511,18.1538298 L7.05702128,24.06 L12.9746809,23.0214894 L8.09808511,18.1538298 Z" id="Shape"></path>
                        <path d="M21.5789362,26.6910638 L3.19212766,26.6910638 L3.19212766,8.30489362 L16.1680851,8.30489362 L19.3659574,5.11340426 L2.06425532,5.11340426 C0.928723404,5.11340426 0,6.04212766 0,7.17765957 L0,27.8189362 C0,28.9538298 0.928723404,29.8825532 2.06425532,29.8825532 L22.7061702,29.8825532 C23.8404255,29.8825532 24.7691489,28.9538298 24.7691489,27.8189362 L24.7691489,13.0608511 L21.5776596,16.247234 L21.5789362,26.6910638 L21.5789362,26.6910638 L21.5789362,26.6910638 Z" id="Shape"></path>
                    </g>
                </g>
            </g>
        </g>
    </g>
</svg>