<?xml version="1.0" encoding="UTF-8" standalone="no"?>
<!-- Created with Inkscape (http://www.inkscape.org/) -->

<svg
   xmlns:dc="http://purl.org/dc/elements/1.1/"
   xmlns:cc="http://creativecommons.org/ns#"
   xmlns:rdf="http://www.w3.org/1999/02/22-rdf-syntax-ns#"
   xmlns:svg="http://www.w3.org/2000/svg"
   xmlns="http://www.w3.org/2000/svg"
   xmlns:sodipodi="http://sodipodi.sourceforge.net/DTD/sodipodi-0.dtd"
   xmlns:inkscape="http://www.inkscape.org/namespaces/inkscape"
   width="156.71252"
   height="200"
   id="svg7197"
   version="1.1"
   inkscape:version="0.48.1 "
   sodipodi:docname="New document 8">
  <defs
     id="defs7199">
    <clipPath
       id="clipPath5805"
       clipPathUnits="userSpaceOnUse">
      <path
         inkscape:connector-curvature="0"
         id="path5807"
         d="m 37.275,1099.463 79.554,0 0,88.537 -79.554,0 0,-88.537 z" />
    </clipPath>
  </defs>
  <sodipodi:namedview
     id="base"
     pagecolor="#ffffff"
     bordercolor="#666666"
     borderopacity="1.0"
     inkscape:pageopacity="0.0"
     inkscape:pageshadow="2"
     inkscape:zoom="1"
     inkscape:cx="67.959894"
     inkscape:cy="51.652144"
     inkscape:document-units="px"
     inkscape:current-layer="layer1"
     showgrid="false"
     fit-margin-top="0"
     fit-margin-left="0"
     fit-margin-right="0"
     fit-margin-bottom="0"
     inkscape:window-width="1024"
     inkscape:window-height="721"
     inkscape:window-x="-4"
     inkscape:window-y="-4"
     inkscape:window-maximized="1" />
  <metadata
     id="metadata7202">
    <rdf:RDF>
      <cc:Work
         rdf:about="">
        <dc:format>image/svg+xml</dc:format>
        <dc:type
           rdf:resource="http://purl.org/dc/dcmitype/StillImage" />
        <dc:title></dc:title>
      </cc:Work>
    </rdf:RDF>
  </metadata>
  <g
     inkscape:label="Layer 1"
     inkscape:groupmode="layer"
     id="layer1"
     transform="translate(-348.06969,-512.69772)">
    <g
       id="g5801"
       transform="matrix(2.2589451,0,0,-2.2589451,263.86669,3196.3245)">
      <g
         id="g5803"
         clip-path="url(#clipPath5805)">
        <path
           inkscape:connector-curvature="0"
           d="m 87.834,1165.59 -1.275,0 0,2.428 1.275,0 0,-2.428 z m 0,-7.183 -1.275,0 0,2.428 1.275,0 0,-2.428 z m -1.741,-2.833 c -0.666,-0.096 -3.042,-0.414 -5.245,-0.414 -1.792,0 -3.16,0.151 -4.367,0.284 l -2.828,0.227 0.015,-0.247 0,-0.707 c -0.269,-0.101 -0.942,-0.321 -1.737,-0.321 -0.783,0 -1.416,0.216 -1.671,0.318 l 0,0.956 -2.816,-0.227 c -1.207,-0.132 -2.575,-0.283 -4.365,-0.283 -2.203,0 -4.581,0.318 -5.248,0.414 l 0,14.761 c 0.16,0.044 0.575,0.155 0.877,0.236 l -10e-4,-13.361 0.1,-0.068 c 0.047,-0.031 1.166,-0.763 4.043,-0.763 1.447,0 2.557,0.237 3.633,0.467 0.92,0.196 1.789,0.382 2.768,0.382 1.873,0 2.459,-0.983 2.481,-1.023 l 0.024,0.012 0.431,0 0.026,-0.012 c 0.025,0.04 0.61,1.023 2.483,1.023 0.977,0 1.848,-0.186 2.77,-0.382 1.075,-0.23 2.187,-0.467 3.634,-0.467 2.876,0 3.997,0.732 4.043,0.763 l 0.101,0.068 0,13.355 c 0.298,-0.081 0.694,-0.187 0.849,-0.23 l 0,-14.761 z m -28.727,10.016 -1.274,0 0,2.428 1.274,0 0,-2.428 z m 0,-7.183 -1.274,0 0,2.428 1.274,0 0,-2.428 z m 1.807,13.857 c 0.516,-0.225 1.639,-0.588 3.677,-0.588 1.448,0 2.557,0.238 3.633,0.467 0.92,0.197 1.79,0.381 2.77,0.381 1.874,0 2.457,-0.98 2.481,-1.022 l 0.005,0 0,-14.624 c -0.412,0.359 -1.182,0.797 -2.488,0.797 -1.027,0 -1.923,-0.191 -2.868,-0.393 -1.05,-0.223 -2.137,-0.455 -3.533,-0.455 -2.388,0 -3.442,0.503 -3.677,0.632 l 0,14.801 z m 13.031,-0.756 0.008,-0.01 c 0.023,0.044 0.609,1.026 2.483,1.026 0.978,0 1.849,-0.186 2.771,-0.382 1.074,-0.23 2.186,-0.467 3.632,-0.467 2.039,0 3.164,0.362 3.68,0.589 l 0,-14.806 c -0.235,-0.129 -1.292,-0.632 -3.678,-0.632 -1.397,0 -2.483,0.232 -3.535,0.455 -0.947,0.202 -1.842,0.393 -2.869,0.393 -1.309,0 -2.08,-0.441 -2.492,-0.801 l 0,14.63 z m 34.141,3.569 c -2.796,-0.852 -5.769,-1.313 -8.854,-1.313 -10.888,0 -20.394,5.721 -25.528,14.236 -5.133,-8.515 -14.638,-14.236 -25.523,-14.236 -3.083,0 -6.052,0.46 -8.844,1.309 -0.731,-8.313 -0.198,-16.513 1.455,-24.398 l 65.795,0 c 1.721,8.226 2.186,16.425 1.499,24.402"
           style="fill:#231f20;fill-opacity:1;fill-rule:nonzero;stroke:none"
           id="path5809" />
        <g
           id="g5811"
           transform="translate(55.7158,1115.2551)">
          <path
             inkscape:connector-curvature="0"
             d="m 0,0 c 4.659,-5.889 10.104,-11.211 16.231,-15.792 6.065,4.521 11.543,9.808 16.263,15.753 L 16.222,15.78 0,0 z"
             style="fill:#f46f1b;fill-opacity:1;fill-rule:nonzero;stroke:none"
             id="path5813" />
        </g>
        <g
           id="g5815"
           transform="translate(48.127,1126.5696)">
          <path
             inkscape:connector-curvature="0"
             d="M 0,0 23.811,22.878 47.665,-0.065 c 3.961,7.051 6.969,14.756 8.815,23.002 0.087,0.39 0.156,0.777 0.239,1.169 l -65.795,0 C -7.296,15.619 -4.213,7.5 0,0"
             style="fill:#f46f1b;fill-opacity:1;fill-rule:nonzero;stroke:none"
             id="path5817" />
        </g>
        <g
           id="g5819"
           transform="translate(48.127,1126.5696)">
          <path
             inkscape:connector-curvature="0"
             d="M 0,0 C 2.223,-3.958 4.761,-7.741 7.589,-11.314 L 23.811,4.465 40.083,-11.353 c 2.809,3.535 5.347,7.306 7.582,11.288 L 23.811,22.878 0,0 z"
             style="fill:#f46f1b;fill-opacity:1;fill-rule:nonzero;stroke:none"
             id="path5821" />
        </g>
        <g
           id="g5823"
           transform="translate(48.127,1126.5696)">
          <path
             inkscape:connector-curvature="0"
             d="M 0,0 C 2.223,-3.958 4.761,-7.741 7.589,-11.314 L 23.811,4.465 40.083,-11.353 c 2.809,3.535 5.347,7.306 7.582,11.288 L 23.811,22.878 0,0 z"
             style="fill:#231f20;fill-opacity:1;fill-rule:nonzero;stroke:none"
             id="path5825" />
        </g>
        <path
           inkscape:connector-curvature="0"
           d="m 86.559,1158.407 1.275,0 0,2.428 -1.275,0 0,-2.428 z"
           style="fill:#ffffff;fill-opacity:1;fill-rule:nonzero;stroke:none"
           id="path5827" />
        <g
           id="g5829"
           transform="translate(85.2441,1157.2098)">
          <path
             inkscape:connector-curvature="0"
             d="m 0,0 -0.101,-0.067 c -0.046,-0.032 -1.167,-0.764 -4.043,-0.764 -1.448,0 -2.559,0.238 -3.634,0.467 -0.922,0.196 -1.793,0.382 -2.77,0.382 -1.873,0 -2.458,-0.983 -2.483,-1.023 l -0.026,0.012 -0.431,0 -0.025,-0.012 c -0.022,0.04 -0.607,1.023 -2.48,1.023 -0.979,0 -1.848,-0.186 -2.768,-0.382 -1.076,-0.229 -2.186,-0.467 -3.633,-0.467 -2.877,0 -3.997,0.732 -4.044,0.764 L -26.537,0 l 10e-4,13.361 c -0.302,-0.081 -0.717,-0.192 -0.877,-0.235 l 0,-14.762 c 0.667,-0.096 3.045,-0.414 5.248,-0.414 1.79,0 3.158,0.151 4.365,0.283 l 2.816,0.227 0,-0.956 c 0.255,-0.102 0.888,-0.318 1.67,-0.318 0.796,0 1.469,0.22 1.738,0.321 l 0,0.707 -0.015,0.247 2.828,-0.227 c 1.207,-0.133 2.575,-0.284 4.367,-0.284 2.203,0 4.579,0.318 5.245,0.414 l 0,14.762 C 0.694,13.168 0.298,13.274 0,13.355 L 0,0 z"
             style="fill:#ffffff;fill-opacity:1;fill-rule:nonzero;stroke:none"
             id="path5831" />
        </g>
        <path
           inkscape:connector-curvature="0"
           d="m 86.559,1165.59 1.275,0 0,2.428 -1.275,0 0,-2.428 z"
           style="fill:#ffffff;fill-opacity:1;fill-rule:nonzero;stroke:none"
           id="path5833" />
        <path
           inkscape:connector-curvature="0"
           d="m 56.092,1165.59 1.274,0 0,2.428 -1.274,0 0,-2.428 z"
           style="fill:#ffffff;fill-opacity:1;fill-rule:nonzero;stroke:none"
           id="path5835" />
        <g
           id="g5837"
           transform="translate(66.383,1157.2859)">
          <path
             inkscape:connector-curvature="0"
             d="m 0,0 c 0.945,0.202 1.841,0.393 2.868,0.393 1.306,0 2.076,-0.438 2.488,-0.797 l 0,14.624 -0.005,-0.004 c -0.024,0.043 -0.607,1.022 -2.481,1.022 -0.98,0 -1.85,-0.184 -2.77,-0.381 -1.076,-0.229 -2.185,-0.467 -3.633,-0.467 -2.038,0 -3.161,0.363 -3.677,0.588 l 0,-14.801 c 0.235,-0.129 1.289,-0.632 3.677,-0.632 1.396,0 2.483,0.232 3.533,0.455"
             style="fill:#ffffff;fill-opacity:1;fill-rule:nonzero;stroke:none"
             id="path5839" />
        </g>
        <path
           inkscape:connector-curvature="0"
           d="m 56.092,1158.407 1.274,0 0,2.428 -1.274,0 0,-2.428 z"
           style="fill:#ffffff;fill-opacity:1;fill-rule:nonzero;stroke:none"
           id="path5841" />
        <g
           id="g5843"
           transform="translate(77.5653,1157.2859)">
          <path
             inkscape:connector-curvature="0"
             d="m 0,0 c 1.052,-0.223 2.137,-0.455 3.535,-0.455 2.386,0 3.443,0.503 3.678,0.632 l 0,14.806 c -0.516,-0.226 -1.642,-0.589 -3.68,-0.589 -1.446,0 -2.558,0.237 -3.632,0.467 -0.922,0.196 -1.793,0.382 -2.772,0.382 -1.874,0 -2.459,-0.982 -2.482,-1.026 l -0.009,0.005 0,-14.63 c 0.413,0.361 1.184,0.801 2.492,0.801 C -1.842,0.393 -0.948,0.202 0,0"
             style="fill:#ffffff;fill-opacity:1;fill-rule:nonzero;stroke:none"
             id="path5845" />
        </g>
        <g
           id="g5847"
           transform="translate(63.7302,1169.4788)">
          <path
             inkscape:connector-curvature="0"
             d="m 0,0 c -0.228,-0.015 -0.38,-0.133 -0.452,-0.286 l -0.956,-2.077 c 0,0 -0.046,-0.029 -0.077,-0.029 -0.032,0 -0.067,0.029 -0.086,0.095 -0.026,0.073 -0.143,0.364 -0.397,0.928 l -0.305,0.677 c -0.113,0.252 -0.199,0.415 -0.229,0.465 -0.112,0.187 -0.25,0.202 -0.403,0.227 -0.02,0.025 -0.02,0.044 -0.02,0.064 0,0.019 0,0.034 0.015,0.059 l 0.158,0 c 0.178,0 0.331,-0.009 0.462,-0.009 0.158,0 0.424,0.014 0.602,0.014 l 0.101,0 c 0.021,-0.005 0.026,-0.039 0.026,-0.055 0,-0.009 0,-0.048 -0.01,-0.069 -0.123,-0.01 -0.382,-0.004 -0.382,-0.162 0,-0.034 0.006,-0.094 0.026,-0.139 l 0.625,-1.453 0.529,1.206 c 0.061,0.138 0.066,0.258 0.066,0.317 0,0.138 -0.096,0.196 -0.36,0.227 -0.005,0.019 -0.016,0.038 -0.016,0.06 0,0.019 0.011,0.054 0.016,0.068 l 0.076,0 c 0.116,0 0.233,-0.014 0.498,-0.014 0.046,0 0.23,0.009 0.316,0.009 l 0.183,0 C 0.016,0.104 0.026,0.089 0.026,0.07 0.026,0.054 0.016,0.016 0,0"
             style="fill:#231f20;fill-opacity:1;fill-rule:nonzero;stroke:none"
             id="path5849" />
        </g>
        <g
           id="g5851"
           transform="translate(66.4028,1167.1563)">
          <path
             inkscape:connector-curvature="0"
             d="m 0,0 c -0.764,0 -1.181,0.019 -1.283,0.019 -0.081,0 -0.27,0.006 -0.366,0.006 C -1.75,0.025 -2,0.01 -2.265,0.01 l -0.151,0.004 c -0.011,0.021 -0.016,0.035 -0.016,0.054 0,0.02 0,0.051 0.01,0.071 0.204,0.014 0.35,0.049 0.382,0.078 0.044,0.05 0.07,0.154 0.081,0.375 0.004,0.114 0.01,0.238 0.01,0.367 0,0.187 -0.006,0.415 -0.006,0.69 0,0.189 -0.004,0.302 -0.004,0.381 -0.006,0.274 -0.137,0.274 -0.423,0.302 -0.01,0.025 -0.014,0.05 -0.014,0.064 0,0.015 0.009,0.054 0.024,0.065 l 0.138,0 c 0.096,0 0.346,-0.006 0.824,-0.006 0.443,0 0.865,-0.01 0.962,-0.01 0.056,0 0.229,-0.005 0.26,-0.005 0.061,0 0.086,-0.004 0.086,-0.054 L -0.071,1.828 C -0.102,1.813 -0.112,1.809 -0.144,1.809 c -0.019,0 -0.035,0 -0.055,0.004 -0.168,0.277 -0.249,0.332 -0.381,0.425 -0.047,0.034 -0.112,0.054 -0.219,0.066 -0.037,0 -0.122,0.003 -0.34,0.003 -0.174,0 -0.265,-0.003 -0.286,-0.009 -0.03,0 -0.026,0.006 -0.036,-0.095 -0.005,-0.058 -0.01,-0.167 -0.01,-0.494 l 0,-0.315 0.087,0 c 0.112,0 0.224,0.009 0.285,0.029 0.102,0.025 0.203,0.093 0.26,0.173 0.019,0.03 0.045,0.163 0.055,0.207 0.02,0.01 0.051,0.016 0.082,0.016 0.024,0 0.05,-0.006 0.065,-0.02 -0.004,-0.1 -0.025,-0.287 -0.025,-0.524 0,-0.119 0.016,-0.382 0.016,-0.489 -0.026,-0.015 -0.036,-0.021 -0.072,-0.021 -0.021,0 -0.05,0.006 -0.071,0.01 -0.026,0.208 -0.056,0.351 -0.239,0.425 -0.102,0.04 -0.183,0.049 -0.28,0.049 -0.051,0 -0.117,-0.003 -0.168,-0.009 l 0,-0.642 c 0,-0.149 0.01,-0.237 0.031,-0.286 0.02,-0.045 0.081,-0.129 0.152,-0.139 0.036,-0.005 0.101,-0.015 0.235,-0.015 l 0.366,0 c 0.091,0 0.224,0.01 0.27,0.039 0.09,0.055 0.324,0.303 0.406,0.524 0.031,0.015 0.052,0.015 0.078,0.015 0.019,0 0.045,-0.005 0.07,-0.02 l 0,-0.648 C 0.132,0.01 0.091,0 0,0"
             style="fill:#231f20;fill-opacity:1;fill-rule:nonzero;stroke:none"
             id="path5853" />
        </g>
        <g
           id="g5855"
           transform="translate(69.4398,1168.8363)">
          <path
             inkscape:connector-curvature="0"
             d="m 0,0 c -0.02,0 -0.041,0.005 -0.071,0.01 -0.056,0.148 -0.127,0.286 -0.189,0.362 -0.1,0.123 -0.202,0.205 -0.467,0.236 -0.056,0.004 -0.199,0.004 -0.244,0.004 l -0.006,-1.081 c 0,-0.168 0,-0.371 0.006,-0.742 0.004,-0.286 0.137,-0.286 0.442,-0.327 0.015,-0.028 0.02,-0.048 0.02,-0.069 0,-0.019 -0.005,-0.038 -0.016,-0.059 l -0.11,0 c -0.179,0 -0.529,0.011 -0.637,0.011 -0.076,0 -0.463,-0.015 -0.645,-0.015 -0.017,0.025 -0.021,0.025 -0.021,0.063 0,0.021 0.004,0.041 0.015,0.065 0.402,0.03 0.442,0.104 0.458,0.228 0.01,0.078 0.01,0.405 0.01,0.731 l 0,0.899 c 0,0.109 -0.005,0.223 -0.02,0.296 -0.076,0 -0.326,0 -0.397,-0.023 C -2.076,0.514 -2.219,0.345 -2.376,0.049 -2.395,0.04 -2.427,0.04 -2.442,0.04 c -0.026,0 -0.046,0.009 -0.061,0.024 l 0,0.632 c 0,0.054 0.009,0.069 0.076,0.069 0.061,0 0.153,-0.005 0.276,-0.005 0.09,0 0.457,-0.004 0.92,-0.004 0.606,0 1.059,0.014 1.171,0.014 0.06,0 0.101,0 0.121,-0.02 0.01,-0.009 0.006,-0.054 0.006,-0.088 l 0,-0.633 C 0.051,0.01 0.026,0 0,0"
             style="fill:#231f20;fill-opacity:1;fill-rule:nonzero;stroke:none"
             id="path5857" />
        </g>
        <g
           id="g5859"
           transform="translate(63.6244,1164.9917)">
          <path
             inkscape:connector-curvature="0"
             d="m 0,0 c -0.019,0 -0.039,0.006 -0.07,0.011 -0.056,0.148 -0.128,0.287 -0.19,0.36 -0.101,0.123 -0.202,0.208 -0.468,0.237 -0.055,0.005 -0.198,0.005 -0.243,0.005 l -0.006,-1.081 c 0,-0.169 0,-0.373 0.006,-0.742 0.006,-0.287 0.137,-0.287 0.442,-0.327 0.015,-0.029 0.02,-0.049 0.02,-0.068 0,-0.019 -0.005,-0.039 -0.014,-0.06 l -0.112,0 c -0.179,0 -0.529,0.01 -0.637,0.01 -0.075,0 -0.463,-0.014 -0.645,-0.014 -0.016,0.025 -0.02,0.025 -0.02,0.064 0,0.019 0.004,0.039 0.014,0.063 0.403,0.031 0.442,0.104 0.458,0.228 0.01,0.079 0.01,0.405 0.01,0.732 l 0,0.899 c 0,0.108 -0.005,0.224 -0.02,0.296 -0.076,0 -0.326,0 -0.397,-0.024 C -2.075,0.515 -2.218,0.346 -2.376,0.05 -2.395,0.04 -2.427,0.04 -2.441,0.04 c -0.026,0 -0.047,0.01 -0.063,0.025 l 0,0.633 c 0,0.054 0.011,0.069 0.077,0.069 0.061,0 0.154,-0.005 0.276,-0.005 0.09,0 0.458,-0.004 0.92,-0.004 0.606,0 1.058,0.013 1.171,0.013 0.06,0 0.102,0 0.121,-0.019 0.01,-0.01 0.005,-0.054 0.005,-0.09 l 0,-0.631 C 0.051,0.011 0.026,0 0,0"
             style="fill:#231f20;fill-opacity:1;fill-rule:nonzero;stroke:none"
             id="path5861" />
        </g>
        <g
           id="g5863"
           transform="translate(66.5157,1163.3127)">
          <path
             inkscape:connector-curvature="0"
             d="m 0,0 c -0.763,0 -1.181,0.019 -1.283,0.019 -0.081,0 -0.27,0.005 -0.366,0.005 -0.102,0 -0.35,-0.014 -0.616,-0.014 l -0.152,0.004 c -0.01,0.021 -0.015,0.035 -0.015,0.056 0,0.019 0,0.048 0.009,0.067 0.204,0.016 0.351,0.05 0.382,0.08 0.045,0.049 0.07,0.153 0.082,0.376 0.004,0.114 0.01,0.237 0.01,0.366 0,0.187 -0.006,0.414 -0.006,0.691 0,0.188 -0.004,0.302 -0.004,0.381 -0.005,0.271 -0.138,0.271 -0.422,0.302 -0.01,0.023 -0.017,0.048 -0.017,0.063 0,0.016 0.011,0.054 0.026,0.064 l 0.138,0 c 0.096,0 0.346,-0.004 0.824,-0.004 0.442,0 0.866,-0.01 0.962,-0.01 0.055,0 0.228,-0.005 0.26,-0.005 0.061,0 0.086,-0.004 0.086,-0.054 l 0.031,-0.558 c -0.031,-0.015 -0.042,-0.02 -0.073,-0.02 -0.019,0 -0.034,0 -0.055,0.005 -0.168,0.277 -0.249,0.331 -0.381,0.424 -0.046,0.036 -0.112,0.054 -0.22,0.064 -0.035,0 -0.122,0.005 -0.341,0.005 -0.173,0 -0.263,-0.005 -0.284,-0.009 -0.03,0 -0.026,0.004 -0.036,-0.094 -0.004,-0.059 -0.01,-0.169 -0.01,-0.494 l 0,-0.316 0.087,0 c 0.112,0 0.224,0.009 0.284,0.029 0.101,0.025 0.203,0.095 0.26,0.173 0.02,0.029 0.045,0.162 0.056,0.207 0.021,0.011 0.051,0.015 0.082,0.015 0.024,0 0.05,-0.004 0.065,-0.02 C -0.641,1.7 -0.663,1.512 -0.663,1.275 c 0,-0.119 0.017,-0.381 0.017,-0.489 -0.026,-0.016 -0.036,-0.02 -0.072,-0.02 -0.021,0 -0.051,0.004 -0.071,0.009 -0.025,0.207 -0.055,0.352 -0.239,0.425 -0.102,0.04 -0.183,0.05 -0.279,0.05 -0.052,0 -0.118,-0.006 -0.17,-0.01 l 0,-0.642 c 0,-0.149 0.012,-0.238 0.032,-0.288 0.02,-0.044 0.081,-0.128 0.151,-0.138 0.037,-0.004 0.103,-0.015 0.235,-0.015 l 0.367,0 c 0.09,0 0.223,0.011 0.269,0.04 0.091,0.055 0.326,0.302 0.407,0.524 0.03,0.015 0.052,0.015 0.076,0.015 0.02,0 0.046,-0.005 0.072,-0.02 l 0,-0.646 C 0.132,0.01 0.091,0 0,0"
             style="fill:#231f20;fill-opacity:1;fill-rule:nonzero;stroke:none"
             id="path5865" />
        </g>
        <g
           id="g5867"
           transform="translate(68.2906,1163.2577)">
          <path
             inkscape:connector-curvature="0"
             d="m 0,0 c -0.209,0 -0.442,0.079 -0.585,0.148 -0.02,0.011 -0.071,0.02 -0.091,0.02 -0.031,0 -0.107,-0.034 -0.188,-0.094 -0.061,0 -0.128,0.03 -0.148,0.074 0,0.049 0.046,0.203 0.046,0.302 0,0.054 -0.016,0.331 -0.022,0.395 0.026,0.035 0.073,0.056 0.113,0.056 0.016,0 0.025,0 0.041,-0.008 0.051,-0.098 0.158,-0.364 0.234,-0.473 0.158,-0.178 0.391,-0.257 0.56,-0.257 0.187,0 0.325,0.034 0.407,0.12 0.117,0.108 0.142,0.177 0.142,0.296 0,0.088 -0.02,0.162 -0.07,0.222 C 0.377,0.88 0.321,0.915 0.173,0.984 0.066,1.033 -0.325,1.126 -0.468,1.201 c -0.173,0.079 -0.26,0.148 -0.35,0.243 -0.107,0.129 -0.144,0.306 -0.144,0.444 0,0.396 0.321,0.687 0.774,0.687 0.173,0 0.407,-0.014 0.601,-0.168 0.04,0.045 0.096,0.094 0.147,0.138 0.077,0 0.128,-0.04 0.132,-0.065 C 0.688,2.421 0.652,2.269 0.652,2.146 0.652,2.08 0.692,1.823 0.692,1.784 0.667,1.77 0.637,1.75 0.596,1.75 0.586,1.75 0.565,1.755 0.55,1.759 0.479,1.878 0.418,2.077 0.336,2.184 0.224,2.338 0.057,2.396 -0.161,2.396 -0.412,2.396 -0.62,2.244 -0.62,2.032 -0.62,1.829 -0.453,1.73 -0.31,1.67 -0.203,1.631 -0.076,1.582 0.072,1.538 0.26,1.478 0.397,1.428 0.474,1.39 0.765,1.245 0.891,1.033 0.891,0.741 0.891,0.291 0.468,0 0,0"
             style="fill:#231f20;fill-opacity:1;fill-rule:nonzero;stroke:none"
             id="path5869" />
        </g>
        <g
           id="g5871"
           transform="translate(64.6317,1159.4666)">
          <path
             inkscape:connector-curvature="0"
             d="m 0,0 c -0.764,0 -1.181,0.021 -1.282,0.021 -0.082,0 -0.27,0.004 -0.367,0.004 -0.102,0 -0.35,-0.014 -0.615,-0.014 l -0.154,0.005 c -0.009,0.019 -0.014,0.034 -0.014,0.054 0,0.02 0,0.049 0.01,0.07 0.203,0.014 0.35,0.049 0.381,0.078 0.046,0.05 0.071,0.154 0.082,0.376 0.005,0.114 0.009,0.237 0.009,0.366 0,0.186 -0.004,0.414 -0.004,0.69 0,0.189 -0.005,0.303 -0.005,0.381 -0.005,0.273 -0.138,0.273 -0.422,0.302 -0.011,0.024 -0.016,0.049 -0.016,0.063 0,0.016 0.011,0.056 0.026,0.066 l 0.138,0 c 0.096,0 0.346,-0.006 0.824,-0.006 0.442,0 0.866,-0.009 0.962,-0.009 0.055,0 0.228,-0.004 0.259,-0.004 0.061,0 0.087,-0.006 0.087,-0.056 l 0.03,-0.558 c -0.03,-0.015 -0.041,-0.02 -0.071,-0.02 -0.022,0 -0.036,0 -0.057,0.005 -0.168,0.276 -0.248,0.331 -0.381,0.425 -0.046,0.035 -0.113,0.054 -0.22,0.065 -0.034,0 -0.122,0.004 -0.34,0.004 -0.173,0 -0.265,-0.004 -0.284,-0.009 -0.031,0 -0.026,0.005 -0.036,-0.095 C -1.466,2.145 -1.471,2.037 -1.471,1.71 l 0,-0.316 0.087,0 c 0.112,0 0.223,0.01 0.285,0.03 0.101,0.025 0.203,0.094 0.259,0.172 0.022,0.03 0.046,0.163 0.056,0.208 0.02,0.01 0.051,0.015 0.081,0.015 0.026,0 0.052,-0.005 0.067,-0.02 -0.006,-0.098 -0.025,-0.287 -0.025,-0.523 0,-0.12 0.016,-0.381 0.016,-0.489 -0.027,-0.016 -0.037,-0.02 -0.071,-0.02 -0.022,0 -0.052,0.004 -0.073,0.008 -0.026,0.209 -0.055,0.353 -0.238,0.425 -0.102,0.041 -0.184,0.051 -0.281,0.051 -0.05,0 -0.116,-0.004 -0.168,-0.01 l 0,-0.643 c 0,-0.147 0.01,-0.236 0.031,-0.286 0.021,-0.044 0.081,-0.129 0.152,-0.139 0.036,-0.005 0.102,-0.014 0.234,-0.014 l 0.366,0 c 0.092,0 0.225,0.009 0.271,0.04 0.091,0.053 0.325,0.301 0.407,0.522 0.03,0.016 0.051,0.016 0.075,0.016 0.021,0 0.046,-0.006 0.073,-0.019 l 0,-0.648 C 0.133,0.011 0.092,0 0,0"
             style="fill:#231f20;fill-opacity:1;fill-rule:nonzero;stroke:none"
             id="path5873" />
        </g>
        <g
           id="g5875"
           transform="translate(68.3111,1161.7999)">
          <path
             inkscape:connector-curvature="0"
             d="m 0,0 c -0.255,-0.011 -0.478,-0.145 -0.478,-0.544 l -0.006,-1.26 c 0,-0.049 0.02,-0.405 0.02,-0.543 -0.036,-0.026 -0.08,-0.04 -0.101,-0.04 -0.015,0 -0.037,0.014 -0.067,0.04 l -1.781,1.862 0.021,-0.38 0.005,-0.687 c 0,-0.054 0.01,-0.183 0.021,-0.277 0.015,-0.152 0.061,-0.207 0.126,-0.262 0.092,-0.074 0.239,-0.098 0.341,-0.108 0.011,-0.02 0.015,-0.04 0.015,-0.055 0,-0.01 -0.004,-0.039 -0.019,-0.064 l -0.194,0 c -0.163,0 -0.29,0.005 -0.464,0.005 -0.112,0 -0.264,-0.01 -0.375,-0.01 l -0.082,0 c -0.005,0.015 -0.011,0.045 -0.011,0.054 0,0.015 0,0.034 0.016,0.065 0.128,0.01 0.326,0.069 0.403,0.168 0.029,0.065 0.039,0.178 0.039,0.296 l 0,0.879 c 0,0.143 -0.004,0.213 -0.01,0.351 -0.005,0.114 -0.029,0.198 -0.086,0.267 -0.01,0.015 -0.066,0.075 -0.127,0.129 -0.056,0.05 -0.198,0.089 -0.285,0.124 -0.011,0.019 -0.015,0.049 -0.015,0.053 0,0.016 0.004,0.046 0.015,0.066 l 0.066,0 c 0.051,0 0.326,-0.016 0.534,-0.016 l 0.122,0 c 0.026,-0.01 0.067,-0.034 0.081,-0.05 l 1.319,-1.398 c 0.102,-0.109 0.229,-0.252 0.3,-0.34 l 0,1.008 c 0,0.138 -0.01,0.231 -0.015,0.282 -0.01,0.103 -0.036,0.192 -0.077,0.262 -0.04,0.063 -0.285,0.098 -0.411,0.123 -0.011,0.024 -0.017,0.054 -0.017,0.074 0,0.015 0,0.029 0.011,0.055 l 0.076,0 c 0.122,0 0.321,-0.02 0.444,-0.02 0.3,0 0.396,0.009 0.549,0.009 L 0,0.118 C 0.01,0.098 0.014,0.074 0.014,0.059 0.014,0.049 0.01,0.019 0,0"
             style="fill:#231f20;fill-opacity:1;fill-rule:nonzero;stroke:none"
             id="path5877" />
        </g>
        <g
           id="g5879"
           transform="translate(77.2399,1169.4885)">
          <path
             inkscape:connector-curvature="0"
             d="m 0,0 c -0.255,-0.01 -0.478,-0.142 -0.478,-0.544 l -0.005,-1.26 c 0,-0.05 0.02,-0.405 0.02,-0.543 -0.036,-0.025 -0.082,-0.039 -0.101,-0.039 -0.016,0 -0.037,0.014 -0.067,0.039 l -1.782,1.863 0.021,-0.38 0.005,-0.688 c 0,-0.054 0.011,-0.182 0.021,-0.276 0.016,-0.154 0.061,-0.208 0.128,-0.263 0.091,-0.074 0.238,-0.099 0.34,-0.109 0.01,-0.019 0.016,-0.038 0.016,-0.053 0,-0.011 -0.006,-0.04 -0.021,-0.065 l -0.193,0 c -0.164,0 -0.291,0.005 -0.464,0.005 -0.112,0 -0.264,-0.01 -0.376,-0.01 l -0.081,0 c -0.005,0.016 -0.011,0.045 -0.011,0.054 0,0.016 0,0.035 0.015,0.065 0.128,0.01 0.326,0.069 0.403,0.168 0.03,0.065 0.04,0.178 0.04,0.296 l 0,0.88 c 0,0.144 -0.005,0.213 -0.01,0.35 -0.004,0.114 -0.03,0.198 -0.087,0.268 -0.009,0.015 -0.066,0.075 -0.128,0.129 -0.054,0.049 -0.197,0.088 -0.283,0.123 -0.011,0.019 -0.016,0.05 -0.016,0.054 0,0.015 0.005,0.044 0.016,0.065 l 0.065,0 c 0.051,0 0.326,-0.016 0.535,-0.016 l 0.122,0 C -2.331,0.104 -2.29,0.079 -2.275,0.064 l 1.318,-1.399 c 0.101,-0.108 0.229,-0.252 0.301,-0.34 l 0,1.008 c 0,0.138 -0.01,0.232 -0.016,0.28 -0.01,0.106 -0.036,0.195 -0.076,0.264 -0.041,0.063 -0.285,0.098 -0.412,0.123 -0.01,0.025 -0.015,0.054 -0.015,0.073 0,0.015 0,0.031 0.01,0.056 l 0.076,0 c 0.122,0 0.321,-0.021 0.443,-0.021 0.301,0 0.397,0.01 0.55,0.01 L 0,0.118 C 0.01,0.098 0.015,0.073 0.015,0.06 0.015,0.05 0.01,0.019 0,0"
             style="fill:#231f20;fill-opacity:1;fill-rule:nonzero;stroke:none"
             id="path5881" />
        </g>
        <g
           id="g5883"
           transform="translate(79.453,1169.2559)">
          <path
             inkscape:connector-curvature="0"
             d="m 0,0 c -0.121,0.164 -0.274,0.257 -0.503,0.257 -0.209,0 -0.346,-0.088 -0.469,-0.257 -0.146,-0.187 -0.23,-0.484 -0.23,-0.865 0,-0.376 0.078,-0.671 0.22,-0.859 0.127,-0.178 0.274,-0.273 0.499,-0.273 0.264,0 0.422,0.124 0.55,0.337 0.106,0.188 0.162,0.45 0.162,0.785 C 0.229,-0.469 0.148,-0.183 0,0 m 0.407,-1.788 c -0.244,-0.238 -0.58,-0.371 -0.895,-0.371 -0.301,0 -0.646,0.123 -0.886,0.352 -0.259,0.246 -0.376,0.572 -0.376,0.932 0,0.352 0.117,0.677 0.376,0.931 0.28,0.255 0.585,0.365 0.891,0.365 0.219,0 0.426,-0.056 0.662,-0.182 0.396,-0.243 0.62,-0.643 0.62,-1.089 0,-0.347 -0.138,-0.692 -0.392,-0.938"
             style="fill:#231f20;fill-opacity:1;fill-rule:nonzero;stroke:none"
             id="path5885" />
        </g>
        <g
           id="g5887"
           transform="translate(83.4512,1169.4788)">
          <path
             inkscape:connector-curvature="0"
             d="m 0,0 c -0.229,-0.015 -0.381,-0.133 -0.453,-0.286 l -0.956,-2.077 c 0,0 -0.047,-0.029 -0.077,-0.029 -0.031,0 -0.066,0.029 -0.086,0.095 -0.025,0.073 -0.144,0.364 -0.397,0.928 l -0.305,0.677 c -0.113,0.252 -0.199,0.415 -0.23,0.465 -0.113,0.187 -0.248,0.202 -0.402,0.227 -0.019,0.025 -0.019,0.044 -0.019,0.064 0,0.019 0,0.034 0.014,0.059 l 0.159,0 c 0.178,0 0.33,-0.009 0.462,-0.009 0.157,0 0.423,0.014 0.6,0.014 l 0.102,0 c 0.021,-0.005 0.027,-0.039 0.027,-0.055 0,-0.009 0,-0.048 -0.011,-0.069 -0.122,-0.01 -0.382,-0.004 -0.382,-0.162 0,-0.034 0.005,-0.094 0.026,-0.139 l 0.625,-1.453 0.53,1.206 c 0.061,0.138 0.066,0.258 0.066,0.317 0,0.138 -0.098,0.196 -0.361,0.227 -0.006,0.019 -0.016,0.038 -0.016,0.06 0,0.019 0.01,0.054 0.016,0.068 l 0.076,0 c 0.116,0 0.234,-0.014 0.498,-0.014 0.045,0 0.23,0.009 0.317,0.009 l 0.182,0 C 0.015,0.104 0.025,0.089 0.025,0.07 0.025,0.054 0.015,0.016 0,0"
             style="fill:#231f20;fill-opacity:1;fill-rule:nonzero;stroke:none"
             id="path5889" />
        </g>
        <g
           id="g5891"
           transform="translate(76.4101,1164.9917)">
          <path
             inkscape:connector-curvature="0"
             d="m 0,0 c -0.02,0 -0.04,0.006 -0.071,0.011 -0.057,0.148 -0.128,0.287 -0.188,0.36 -0.102,0.123 -0.204,0.208 -0.469,0.237 -0.055,0.005 -0.198,0.005 -0.244,0.005 l -0.005,-1.081 c 0,-0.169 0,-0.373 0.005,-0.742 0.005,-0.287 0.138,-0.287 0.442,-0.327 0.016,-0.029 0.02,-0.049 0.02,-0.068 0,-0.019 -0.004,-0.039 -0.013,-0.06 l -0.112,0 c -0.18,0 -0.53,0.01 -0.637,0.01 -0.077,0 -0.463,-0.014 -0.646,-0.014 -0.016,0.025 -0.022,0.025 -0.022,0.064 0,0.019 0.006,0.039 0.016,0.063 0.402,0.031 0.443,0.104 0.458,0.228 0.01,0.079 0.01,0.405 0.01,0.732 l 0,0.899 c 0,0.108 -0.004,0.224 -0.02,0.296 -0.076,0 -0.325,0 -0.397,-0.024 C -2.077,0.515 -2.218,0.346 -2.376,0.05 -2.398,0.04 -2.427,0.04 -2.443,0.04 c -0.026,0 -0.045,0.01 -0.061,0.025 l 0,0.633 c 0,0.054 0.01,0.069 0.077,0.069 0.061,0 0.153,-0.005 0.275,-0.005 0.091,0 0.456,-0.004 0.921,-0.004 0.605,0 1.058,0.013 1.171,0.013 0.06,0 0.101,0 0.12,-0.019 0.011,-0.01 0.006,-0.054 0.006,-0.09 l 0,-0.631 C 0.051,0.011 0.025,0 0,0"
             style="fill:#231f20;fill-opacity:1;fill-rule:nonzero;stroke:none"
             id="path5893" />
        </g>
        <g
           id="g5895"
           transform="translate(77.8496,1165.2593)">
          <path
             inkscape:connector-curvature="0"
             d="M 0,0 -0.005,0 C -0.056,-0.094 -0.153,-0.306 -0.188,-0.396 -0.32,-0.711 -0.366,-0.819 -0.391,-0.865 l 0.752,0 C 0.305,-0.721 0.113,-0.271 0,0 m 1.593,-1.942 -0.198,0 c -0.127,0 -0.275,0.014 -0.423,0.014 -0.239,0 -0.545,-0.014 -0.661,-0.014 -0.016,0.009 -0.021,0.035 -0.021,0.059 0,0.02 0.005,0.04 0.015,0.06 0.244,0.01 0.347,0.049 0.347,0.148 0,0.039 -0.006,0.119 -0.082,0.316 -0.071,0.179 -0.111,0.262 -0.131,0.306 -0.012,0.015 -0.017,0.026 -0.073,0.026 l -0.793,0 c -0.051,-0.06 -0.117,-0.233 -0.189,-0.471 -0.015,-0.058 -0.015,-0.118 -0.015,-0.138 0,-0.079 0.076,-0.173 0.356,-0.177 0.015,-0.03 0.021,-0.05 0.021,-0.07 0,-0.014 0,-0.034 -0.012,-0.054 l -0.065,0 c -0.188,0 -0.244,0.009 -0.438,0.009 -0.131,0 -0.443,-0.009 -0.544,-0.009 -0.01,0.02 -0.015,0.03 -0.015,0.049 0,0.02 0,0.035 0.015,0.065 0.149,0.029 0.291,0.073 0.361,0.177 0.041,0.06 0.173,0.287 0.321,0.638 0.138,0.327 0.311,0.74 0.387,0.914 0.103,0.213 0.138,0.282 0.173,0.355 0.056,0.11 0.113,0.218 0.138,0.258 0.02,0.029 0.071,0.044 0.095,0.044 0.042,0 0.092,-0.025 0.113,-0.05 C 0.301,0.469 0.326,0.42 0.336,0.39 0.478,0.054 0.596,-0.247 0.779,-0.668 0.87,-0.879 0.917,-1.013 1.018,-1.235 c 0.066,-0.139 0.111,-0.242 0.178,-0.37 0.097,-0.184 0.249,-0.189 0.397,-0.223 0.01,-0.02 0.025,-0.035 0.025,-0.06 0,-0.019 -0.009,-0.035 -0.025,-0.054"
             style="fill:#231f20;fill-opacity:1;fill-rule:nonzero;stroke:none"
             id="path5897" />
        </g>
        <g
           id="g5899"
           transform="translate(83.3429,1163.3175)">
          <path
             inkscape:connector-curvature="0"
             d="m 0,0 -1.019,0.009 -0.285,0 c -0.01,0.021 -0.015,0.049 -0.015,0.065 0,0.03 0.005,0.035 0.021,0.059 0.055,0.005 0.188,0 0.253,0.025 0.102,0.044 0.144,0.144 0.144,0.292 l 0,1.433 c 0,0 0.005,0.257 0.005,0.332 l -0.011,0 -0.535,-1.143 C -1.502,0.943 -1.568,0.81 -1.629,0.672 -1.751,0.405 -1.818,0.223 -1.853,0.118 -1.868,0.074 -1.91,0.074 -1.934,0.074 c -0.032,0 -0.057,0.01 -0.077,0.064 -0.066,0.148 -0.111,0.247 -0.136,0.306 l -0.847,1.799 -0.013,0 0,-0.459 0.013,-1.147 c 0.006,-0.351 0.19,-0.514 0.48,-0.514 0.01,-0.019 0.019,-0.049 0.019,-0.058 C -2.495,0.05 -2.5,0.025 -2.51,0.005 -2.529,0.005 -2.586,0 -2.642,0 -2.678,0 -2.86,0.014 -3.13,0.014 c -0.076,0 -0.234,-0.005 -0.356,-0.005 l -0.169,0 C -3.664,0.03 -3.67,0.05 -3.67,0.069 c 0,0.01 0.006,0.035 0.015,0.054 0.067,0.015 0.317,0.075 0.367,0.124 0.051,0.049 0.097,0.153 0.097,0.395 l 0.005,0.578 -0.005,0.683 c -0.005,0.202 -0.025,0.275 -0.128,0.346 -0.04,0.029 -0.198,0.048 -0.33,0.064 -0.015,0.024 -0.021,0.048 -0.021,0.069 0,0.015 0.006,0.038 0.021,0.064 0.096,0 0.274,-0.01 0.447,-0.01 l 0.616,0 c 0.02,-0.016 0.037,-0.025 0.051,-0.06 l 0.753,-1.659 0.138,0.33 c 0.112,0.267 0.285,0.668 0.525,1.102 0.05,0.094 0.116,0.217 0.152,0.283 l 0.956,0.014 C 0,2.426 0.014,2.411 0.014,2.388 0.014,2.361 0.004,2.347 -0.006,2.322 -0.108,2.308 -0.291,2.308 -0.378,2.165 -0.408,2.12 -0.429,2.076 -0.429,1.872 l 0,-1.181 c 0,-0.455 0.118,-0.499 0.174,-0.533 C -0.23,0.138 -0.083,0.123 0,0.123 0.014,0.099 0.019,0.084 0.019,0.058 0.019,0.025 0.01,0.019 0,0"
             style="fill:#231f20;fill-opacity:1;fill-rule:nonzero;stroke:none"
             id="path5901" />
        </g>
        <g
           id="g5903"
           transform="translate(76.3524,1161.1472)">
          <path
             inkscape:connector-curvature="0"
             d="m 0,0 c -0.019,0 -0.039,0.004 -0.071,0.01 -0.056,0.148 -0.128,0.286 -0.188,0.361 -0.102,0.124 -0.204,0.207 -0.469,0.236 -0.056,0.005 -0.197,0.005 -0.244,0.005 l -0.004,-1.081 c 0,-0.169 0,-0.371 0.004,-0.742 0.006,-0.287 0.138,-0.287 0.442,-0.325 0.016,-0.031 0.021,-0.05 0.021,-0.071 0,-0.02 -0.005,-0.039 -0.014,-0.058 l -0.112,0 c -0.18,0 -0.531,0.01 -0.637,0.01 -0.075,0 -0.463,-0.016 -0.645,-0.016 -0.016,0.025 -0.021,0.025 -0.021,0.064 0,0.021 0.005,0.04 0.016,0.065 0.401,0.03 0.442,0.104 0.456,0.227 0.01,0.079 0.01,0.406 0.01,0.731 l 0,0.9 c 0,0.109 -0.004,0.222 -0.019,0.296 -0.077,0 -0.325,0 -0.398,-0.024 -0.204,-0.074 -0.345,-0.242 -0.504,-0.54 -0.018,-0.009 -0.05,-0.009 -0.065,-0.009 -0.026,0 -0.047,0.009 -0.06,0.024 l 0,0.633 c 0,0.055 0.009,0.07 0.075,0.07 0.06,0 0.152,-0.006 0.275,-0.006 0.091,0 0.459,-0.004 0.921,-0.004 0.605,0 1.058,0.015 1.171,0.015 0.06,0 0.102,0 0.12,-0.02 C 0.072,0.74 0.066,0.696 0.066,0.661 l 0,-0.631 C 0.051,0.01 0.025,0 0,0"
             style="fill:#231f20;fill-opacity:1;fill-rule:nonzero;stroke:none"
             id="path5905" />
        </g>
        <g
           id="g5907"
           transform="translate(79.4913,1161.7891)">
          <path
             inkscape:connector-curvature="0"
             d="m 0,0 c -0.228,-0.015 -0.38,-0.134 -0.452,-0.286 l -0.957,-2.076 c 0,0 -0.045,-0.029 -0.076,-0.029 -0.029,0 -0.065,0.029 -0.087,0.094 -0.025,0.073 -0.142,0.365 -0.397,0.929 l -0.306,0.677 c -0.111,0.252 -0.198,0.414 -0.227,0.465 -0.113,0.187 -0.249,0.202 -0.402,0.226 -0.021,0.026 -0.021,0.045 -0.021,0.065 0,0.02 0,0.033 0.016,0.059 l 0.158,0 c 0.176,0 0.33,-0.01 0.462,-0.01 0.159,0 0.422,0.015 0.601,0.015 l 0.101,0 c 0.021,-0.005 0.025,-0.04 0.025,-0.055 0,-0.009 0,-0.048 -0.01,-0.069 -0.122,-0.01 -0.381,-0.005 -0.381,-0.162 0,-0.035 0.005,-0.095 0.025,-0.139 l 0.627,-1.453 0.529,1.206 c 0.06,0.137 0.065,0.257 0.065,0.317 0,0.138 -0.096,0.196 -0.361,0.226 -0.005,0.02 -0.014,0.04 -0.014,0.06 0,0.019 0.009,0.054 0.014,0.069 l 0.076,0 c 0.118,0 0.235,-0.015 0.499,-0.015 0.047,0 0.23,0.01 0.316,0.01 l 0.183,0 C 0.016,0.104 0.026,0.089 0.026,0.07 0.026,0.054 0.016,0.016 0,0"
             style="fill:#231f20;fill-opacity:1;fill-rule:nonzero;stroke:none"
             id="path5909" />
        </g>
        <g
           id="g5911"
           transform="translate(83.3957,1159.4725)">
          <path
             inkscape:connector-curvature="0"
             d="m 0,0 -1.019,0.01 -0.285,0 c -0.01,0.019 -0.014,0.049 -0.014,0.063 0,0.029 0.004,0.035 0.02,0.06 0.057,0.006 0.188,0 0.254,0.024 0.102,0.045 0.143,0.143 0.143,0.292 l 0,1.433 c 0,0 0.004,0.257 0.004,0.331 l -0.01,0 L -1.44,1.071 C -1.501,0.943 -1.568,0.81 -1.628,0.671 -1.751,0.404 -1.818,0.221 -1.852,0.118 -1.868,0.073 -1.908,0.073 -1.934,0.073 c -0.031,0 -0.057,0.01 -0.076,0.066 -0.067,0.147 -0.112,0.246 -0.138,0.306 l -0.844,1.798 -0.016,0 0,-0.46 0.016,-1.146 c 0.004,-0.351 0.188,-0.514 0.478,-0.514 0.01,-0.021 0.019,-0.05 0.019,-0.059 0,-0.016 -0.003,-0.04 -0.014,-0.06 C -2.529,0.004 -2.585,0 -2.642,0 -2.678,0 -2.86,0.014 -3.129,0.014 -3.206,0.014 -3.364,0.01 -3.485,0.01 l -0.17,0 c -0.009,0.019 -0.014,0.038 -0.014,0.057 0,0.012 0.005,0.035 0.014,0.056 0.067,0.016 0.316,0.075 0.368,0.123 0.049,0.05 0.096,0.154 0.096,0.397 l 0.005,0.576 -0.005,0.683 c -0.004,0.202 -0.026,0.276 -0.127,0.347 -0.041,0.028 -0.199,0.049 -0.332,0.063 -0.014,0.024 -0.019,0.05 -0.019,0.069 0,0.014 0.005,0.04 0.019,0.065 0.097,0 0.276,-0.012 0.45,-0.012 l 0.615,0 c 0.019,-0.013 0.036,-0.023 0.05,-0.058 l 0.753,-1.661 0.138,0.332 c 0.112,0.267 0.284,0.667 0.524,1.102 0.05,0.094 0.117,0.218 0.153,0.282 l 0.956,0.015 C 0,2.426 0.015,2.411 0.015,2.386 0.015,2.362 0.004,2.346 -0.007,2.321 -0.108,2.307 -0.291,2.307 -0.377,2.163 -0.408,2.119 -0.428,2.074 -0.428,1.873 l 0,-1.182 c 0,-0.454 0.117,-0.498 0.172,-0.534 C -0.23,0.139 -0.083,0.123 0,0.123 0.015,0.098 0.02,0.083 0.02,0.059 0.02,0.024 0.01,0.019 0,0"
             style="fill:#231f20;fill-opacity:1;fill-rule:nonzero;stroke:none"
             id="path5913" />
        </g>
      </g>
    </g>
  </g>
</svg>
